<svg xmlns="http://www.w3.org/2000/svg" xmlns:xlink="http://www.w3.org/1999/xlink" width="171" zoomAndPan="magnify" viewBox="0 0 128.25 138.750001" height="185" preserveAspectRatio="xMidYMid meet" version="1.2"><defs><clipPath id="95200de079"><path d="M 13.292969 14.753906 L 99.039062 14.753906 L 99.039062 100.5 L 13.292969 100.5 Z M 13.292969 14.753906 "/></clipPath><clipPath id="84e4b3bddc"><path d="M 25.253906 26.714844 L 49.113281 26.714844 L 49.113281 55 L 25.253906 55 Z M 25.253906 26.714844 "/></clipPath><clipPath id="b864e28492"><path d="M 25.253906 31.933594 L 25.253906 49.5 C 25.253906 52.382812 27.589844 54.71875 30.472656 54.71875 L 44.253906 54.71875 C 47.136719 54.71875 49.472656 52.382812 49.472656 49.5 L 49.472656 31.933594 C 49.472656 29.050781 47.136719 26.714844 44.253906 26.714844 L 30.472656 26.714844 C 27.589844 26.714844 25.253906 29.050781 25.253906 31.933594 Z M 25.253906 31.933594 "/></clipPath><clipPath id="a55011efc0"><path d="M 84 93 L 124 93 L 124 135 L 84 135 Z M 84 93 "/></clipPath><clipPath id="b8c5c65363"><path d="M 92.960938 90.597656 L 127.140625 128.046875 L 115.578125 138.605469 L 81.394531 101.15625 Z M 92.960938 90.597656 "/></clipPath><clipPath id="6775aaa2eb"><path d="M 87.300781 95.765625 C 84.175781 98.617188 83.953125 103.464844 86.808594 106.589844 L 110.453125 132.496094 C 113.304688 135.621094 118.152344 135.84375 121.277344 132.988281 C 124.402344 130.136719 124.625 125.289062 121.769531 122.164062 L 98.125 96.257812 C 95.273438 93.132812 90.425781 92.910156 87.300781 95.765625 Z M 87.300781 95.765625 "/></clipPath><clipPath id="838fa7ea89"><path d="M 92.960938 90.597656 L 127.140625 128.046875 L 115.578125 138.605469 L 81.394531 101.15625 Z M 92.960938 90.597656 "/></clipPath><clipPath id="dd22422c3b"><path d="M 92.960938 90.597656 L 226.167969 236.542969 L 214.601562 247.097656 L 81.394531 101.15625 Z M 92.960938 90.597656 "/></clipPath><clipPath id="deb86dbd9b"><path d="M 78 85 L 98 85 L 98 107 L 78 107 Z M 78 85 "/></clipPath><clipPath id="b44c12ce2f"><path d="M 83.179688 83.992188 L 100.273438 102.714844 L 92.5625 109.753906 L 75.472656 91.027344 Z M 83.179688 83.992188 "/></clipPath><clipPath id="800543b4c7"><path d="M 79.59375 87.265625 C 77.613281 89.074219 77.472656 92.144531 79.28125 94.125 L 89.460938 105.277344 C 91.269531 107.257812 94.339844 107.398438 96.320312 105.589844 C 98.300781 103.78125 98.441406 100.710938 96.632812 98.730469 L 86.457031 87.578125 C 84.648438 85.597656 81.574219 85.457031 79.59375 87.265625 Z M 79.59375 87.265625 "/></clipPath><clipPath id="65c783361d"><path d="M 83.179688 83.992188 L 99.769531 102.164062 L 92.609375 108.699219 L 76.023438 90.527344 Z M 83.179688 83.992188 "/></clipPath><clipPath id="c9ad3c7f13"><path d="M 83.179688 83.992188 L 167.628906 176.511719 L 160.472656 183.046875 L 76.023438 90.527344 Z M 83.179688 83.992188 "/></clipPath></defs><g id="b8be648fb0"><g clip-rule="nonzero" clip-path="url(#95200de079)"><path style=" stroke:none;fill-rule:nonzero;fill:#004aad;fill-opacity:1;" d="M 56.164062 14.753906 C 32.484375 14.753906 13.292969 33.945312 13.292969 57.625 C 13.292969 81.304688 32.484375 100.5 56.164062 100.5 C 79.84375 100.5 99.039062 81.304688 99.039062 57.625 C 99.039062 33.945312 79.84375 14.753906 56.164062 14.753906 Z M 56.164062 91.925781 C 37.222656 91.925781 21.867188 76.570312 21.867188 57.625 C 21.867188 38.683594 37.222656 23.328125 56.164062 23.328125 C 75.105469 23.328125 90.464844 38.683594 90.464844 57.625 C 90.464844 76.570312 75.105469 91.925781 56.164062 91.925781 Z M 56.164062 91.925781 "/></g><g style="fill:#a6a6a6;fill-opacity:1;"><g transform="translate(39.765963, 81.90893)"><path style="stroke:none" d="M 11.09375 -14.515625 C 11.113281 -17.421875 11.46875 -19.78125 12.15625 -21.59375 C 12.851562 -23.414062 14.085938 -25.101562 15.859375 -26.65625 C 17.566406 -28.113281 18.828125 -29.398438 19.640625 -30.515625 C 20.453125 -31.640625 20.859375 -32.882812 20.859375 -34.25 C 20.859375 -37.71875 19.265625 -39.453125 16.078125 -39.453125 C 14.671875 -39.453125 13.488281 -39 12.53125 -38.09375 C 11.570312 -37.195312 11.082031 -35.851562 11.0625 -34.0625 L 1.34375 -34.0625 C 1.382812 -37.007812 2.046875 -39.472656 3.328125 -41.453125 C 4.609375 -43.441406 6.347656 -44.910156 8.546875 -45.859375 C 10.753906 -46.816406 13.265625 -47.296875 16.078125 -47.296875 C 19.117188 -47.296875 21.71875 -46.804688 23.875 -45.828125 C 26.03125 -44.859375 27.679688 -43.429688 28.828125 -41.546875 C 29.984375 -39.671875 30.5625 -37.390625 30.5625 -34.703125 C 30.5625 -33.015625 30.257812 -31.503906 29.65625 -30.171875 C 29.050781 -28.835938 28.269531 -27.644531 27.3125 -26.59375 C 26.363281 -25.550781 25.046875 -24.238281 23.359375 -22.65625 L 22.75 -22.109375 C 21.570312 -21.066406 20.757812 -19.972656 20.3125 -18.828125 C 19.863281 -17.679688 19.617188 -16.242188 19.578125 -14.515625 Z M 15.484375 -9.8125 C 16.546875 -9.8125 17.484375 -9.582031 18.296875 -9.125 C 19.109375 -8.675781 19.738281 -8.066406 20.1875 -7.296875 C 20.632812 -6.535156 20.859375 -5.671875 20.859375 -4.703125 C 20.859375 -3.742188 20.632812 -2.878906 20.1875 -2.109375 C 19.738281 -1.347656 19.109375 -0.738281 18.296875 -0.28125 C 17.484375 0.164062 16.546875 0.390625 15.484375 0.390625 C 14.410156 0.390625 13.46875 0.164062 12.65625 -0.28125 C 11.84375 -0.738281 11.210938 -1.347656 10.765625 -2.109375 C 10.316406 -2.878906 10.09375 -3.742188 10.09375 -4.703125 C 10.09375 -5.671875 10.316406 -6.535156 10.765625 -7.296875 C 11.210938 -8.066406 11.84375 -8.675781 12.65625 -9.125 C 13.46875 -9.582031 14.410156 -9.8125 15.484375 -9.8125 Z M 15.484375 -9.8125 "/></g></g><g clip-rule="nonzero" clip-path="url(#84e4b3bddc)"><g clip-rule="nonzero" clip-path="url(#b864e28492)"><path style=" stroke:none;fill-rule:nonzero;fill:#ffffff;fill-opacity:1;" d="M 56.195312 26.714844 C 39.121094 26.714844 25.253906 40.585938 25.253906 57.65625 C 25.253906 74.730469 39.121094 88.601562 56.195312 88.601562 C 73.269531 88.601562 87.140625 74.730469 87.140625 57.65625 C 87.140625 40.585938 73.269531 26.714844 56.195312 26.714844 Z M 56.195312 29.292969 C 71.878906 29.292969 84.5625 41.976562 84.5625 57.65625 C 84.5625 73.339844 71.878906 86.023438 56.195312 86.023438 C 40.515625 86.023438 27.832031 73.339844 27.832031 57.65625 C 27.832031 41.976562 40.515625 29.292969 56.195312 29.292969 Z M 56.195312 29.292969 "/></g></g><g clip-rule="nonzero" clip-path="url(#a55011efc0)"><g clip-rule="nonzero" clip-path="url(#b8c5c65363)"><g clip-rule="nonzero" clip-path="url(#6775aaa2eb)"><g clip-rule="nonzero" clip-path="url(#838fa7ea89)"><g clip-rule="nonzero" clip-path="url(#dd22422c3b)"><path style=" stroke:none;fill-rule:nonzero;fill:#004aad;fill-opacity:1;" d="M 92.917969 90.636719 L 226.128906 236.578125 L 214.902344 246.824219 L 81.691406 100.882812 Z M 92.917969 90.636719 "/></g></g></g></g></g><g clip-rule="nonzero" clip-path="url(#deb86dbd9b)"><g clip-rule="nonzero" clip-path="url(#b44c12ce2f)"><g clip-rule="nonzero" clip-path="url(#800543b4c7)"><g clip-rule="nonzero" clip-path="url(#65c783361d)"><g clip-rule="nonzero" clip-path="url(#c9ad3c7f13)"><path style=" stroke:none;fill-rule:nonzero;fill:#004aad;fill-opacity:1;" d="M 83.15625 84.011719 L 167.535156 176.457031 L 160.425781 182.949219 L 76.046875 90.503906 Z M 83.15625 84.011719 "/></g></g></g></g></g></g></svg>