<svg version="1.1" id="Layer_1" xmlns="http://www.w3.org/2000/svg" xmlns:xlink="http://www.w3.org/1999/xlink" x="0px" y="0px"
	 width="100%" viewBox="0 0 1024 310" enable-background="new 0 0 1024 310" xml:space="preserve">
<path fill="#020303" opacity="1.000000" stroke="none" 
	d="
M719.000000,311.000000 
	C479.333374,311.000000 240.166748,311.000000 1.000096,311.000000 
	C1.000064,207.666733 1.000064,104.333458 1.000032,1.000138 
	C342.333221,1.000092 683.666443,1.000092 1024.999756,1.000046 
	C1024.999756,104.333191 1024.999756,207.666382 1024.999878,310.999786 
	C923.166687,311.000000 821.333313,311.000000 719.000000,311.000000 
M225.918579,185.962845 
	C225.918579,185.962845 226.001389,185.917038 226.637238,185.867645 
	C226.723007,184.906296 226.808777,183.944962 226.937057,182.331467 
	C227.059280,181.914597 227.181503,181.497711 227.999985,180.930115 
	C229.972961,175.340012 232.015930,169.773361 233.897858,164.152771 
	C235.546997,159.227432 237.015335,154.241577 238.563538,149.282440 
	C240.435959,152.502213 241.110153,155.575562 242.196671,158.495483 
	C243.275696,161.395264 244.769547,164.140686 246.307983,167.215881 
	C246.307983,167.215881 246.334351,167.561264 246.109818,168.445724 
	C247.635818,172.991394 249.161804,177.537048 250.912399,182.698242 
	C250.951035,183.131546 250.989670,183.564850 250.526474,184.410538 
	C251.090363,185.207382 251.654266,186.004211 252.822876,186.832794 
	C253.220001,186.893860 253.617126,186.954926 254.184113,187.769547 
	C257.227264,188.884369 260.362152,190.783615 262.951508,186.361969 
	C262.951508,186.361969 263.234772,186.044266 263.882599,185.932999 
	C264.237976,184.286819 264.593353,182.640640 264.965210,180.340408 
	C265.073120,179.919052 265.181030,179.497711 265.990387,178.912338 
	C266.964996,174.937347 267.939575,170.962372 268.949554,166.334427 
	C269.064850,165.915115 269.180176,165.495804 269.968597,164.883591 
	C272.719788,159.883148 274.476562,154.641449 273.881165,148.393417 
	C273.881165,148.393417 274.085297,148.012711 274.781433,147.864792 
	C275.506042,144.574997 276.230652,141.285202 276.974030,137.341736 
	C277.091339,136.923569 277.208649,136.505402 277.999481,135.944656 
	C278.357239,133.971054 278.714996,131.997437 279.037506,129.352036 
	C278.992981,128.908218 278.948456,128.464386 278.806763,127.254120 
	C275.420410,125.752731 272.056976,124.578812 268.705139,128.321671 
	C268.497101,128.573303 268.280792,128.817627 267.313171,129.184509 
	C266.240173,132.732895 265.087280,136.259460 264.110260,139.834076 
	C261.852844,148.093521 259.680664,156.376297 257.371216,165.034561 
	C255.130447,160.550812 253.222763,156.733597 251.088089,152.305206 
	C251.025406,151.876114 250.962723,151.447006 251.441452,150.580246 
	C249.886429,144.943588 248.442505,139.272583 246.716064,133.688934 
	C246.112152,131.735764 244.812653,129.997665 243.412704,128.036102 
	C243.412704,128.036102 243.027206,127.831406 242.825577,127.119102 
	C240.202301,127.337967 237.579025,127.556831 234.541458,127.972183 
	C234.541458,127.972183 234.107620,128.120560 233.377777,128.171585 
	C229.662735,139.731277 225.940125,151.288589 222.279327,162.865433 
	C222.193878,163.135651 222.803696,163.625748 223.050720,164.664917 
	C222.930862,165.082047 222.811005,165.499161 221.953766,165.902802 
	C221.272461,165.017532 220.534073,164.169678 219.923203,163.238220 
	C218.999908,161.830338 218.165497,160.364197 217.096207,158.299072 
	C217.058640,157.865738 217.021057,157.432404 217.487747,156.563950 
	C216.751602,154.684738 216.015457,152.805527 215.075577,150.304581 
	C215.035324,149.871552 214.995071,149.438538 215.473038,148.582031 
	C214.732605,146.699371 213.992188,144.816696 213.047104,142.312515 
	C213.003265,141.879730 212.959427,141.446960 213.447342,140.573364 
	C212.915375,139.407349 212.383408,138.241333 211.631943,136.818283 
	C211.631943,136.818283 211.620056,136.480484 211.867706,135.626755 
	C211.258499,133.753815 210.649292,131.880890 209.786255,129.494980 
	C209.514038,128.995056 209.241837,128.495132 208.815659,127.235306 
	C205.435043,125.761086 202.077148,124.639587 198.686218,128.208252 
	C198.595398,128.645859 198.504578,129.083466 198.154129,130.391937 
	C199.787231,137.232819 201.268906,144.115143 203.125519,150.894821 
	C203.903610,153.736145 205.476379,156.359848 206.909988,159.696808 
	C206.956726,160.128494 207.003464,160.560181 206.514542,161.444550 
	C207.920258,165.653671 209.325974,169.862793 210.951157,174.687943 
	C210.996979,175.120148 211.042816,175.552338 210.565598,176.374527 
	C211.275543,177.943115 211.985504,179.511688 212.925034,181.691483 
	C212.983261,182.121567 213.041489,182.551651 212.581726,183.352539 
	C213.057724,184.205429 213.533737,185.058304 214.083282,185.951385 
	C214.083282,185.951385 214.076797,186.034943 214.164886,186.558777 
	C214.478912,186.662064 214.792953,186.765350 215.565109,186.862854 
	C215.565109,186.862854 216.002731,186.998474 216.168945,187.738083 
	C218.933182,189.217331 221.664841,190.341782 224.458298,186.886887 
	C224.458298,186.886887 224.946854,186.892548 225.468658,186.913498 
	C225.623611,186.627762 225.778564,186.342026 225.918579,185.962845 
M815.932190,180.516251 
	C815.035400,179.428070 814.138550,178.339890 813.275757,177.292908 
	C814.246338,176.028671 814.970642,175.120499 815.657776,174.184998 
	C829.769043,154.973053 830.959106,129.090195 818.646057,109.301506 
	C806.158325,89.232056 782.633301,78.675880 759.854492,82.920578 
	C736.747986,87.226318 718.938416,104.351242 714.016541,126.996468 
	C709.052673,149.835175 718.376526,173.324478 737.639832,186.510010 
	C756.972107,199.742752 781.821106,200.139633 801.232910,187.655197 
	C802.536011,186.817139 805.272156,186.023407 805.852112,186.631012 
	C808.110840,188.997528 811.306519,191.949402 811.285461,194.661255 
	C811.254761,198.607208 812.206665,201.372147 814.748108,203.991821 
	C825.535095,215.110840 836.256348,226.294250 847.116699,237.341049 
	C851.729675,242.033142 856.808472,241.506470 862.300354,236.136734 
	C867.055054,231.487732 867.382996,226.902451 862.966858,222.226608 
	C851.872498,210.479919 840.720825,198.785919 829.452148,187.206955 
	C828.061462,185.777954 825.558960,184.054840 824.026306,184.413025 
	C820.295471,185.284927 818.418884,183.477158 815.932190,180.516251 
M393.569183,186.434189 
	C395.493958,186.434189 397.418762,186.434189 399.768433,186.434189 
	C399.768433,177.713516 399.768433,169.605743 399.768433,161.329529 
	C409.981232,161.329529 419.761627,161.329529 430.015015,161.329529 
	C430.015015,169.621811 430.015015,177.850113 430.015015,186.276688 
	C433.743835,186.276688 436.999298,186.276688 440.524017,186.276688 
	C440.524017,166.804291 440.524017,147.588745 440.524017,128.314224 
	C436.912781,128.314224 433.559143,128.314224 429.861938,128.314224 
	C429.861938,136.314102 429.861938,143.908569 429.861938,151.699188 
	C419.753021,151.699188 409.997406,151.699188 399.785400,151.699188 
	C399.785400,143.785568 399.785400,136.034134 399.785400,128.091293 
	C396.054016,128.091293 392.776306,128.091293 389.247162,128.091293 
	C389.247162,147.459976 389.247162,166.708801 389.247162,186.182846 
	C390.417023,186.267441 391.548676,186.349258 393.569183,186.434189 
M597.276672,167.930466 
	C597.324341,165.938766 597.547119,163.933289 597.391541,161.957596 
	C596.307800,148.202179 587.846436,140.321289 575.377625,142.075058 
	C571.481689,142.623047 567.837708,144.962402 564.134155,146.459213 
	C563.041870,142.290314 561.637573,141.808975 554.608032,143.628357 
	C554.608032,163.406113 554.608032,183.152435 554.608032,203.095673 
	C558.182556,203.095673 561.439392,203.095673 565.229736,203.095673 
	C565.229736,196.188507 565.229736,189.508362 565.229736,183.176285 
	C568.380188,184.603424 571.082825,186.416809 574.040710,187.064880 
	C586.399658,189.772827 595.193726,182.694412 597.276672,167.930466 
M522.976379,187.421066 
	C533.903442,187.742111 540.308533,183.330475 543.190491,173.498154 
	C546.637268,161.738937 543.150208,149.062531 534.905273,144.401688 
	C532.662292,143.133743 529.958862,142.395081 527.382629,142.059509 
	C521.513306,141.295013 516.265686,142.940201 511.733002,147.857498 
	C511.308502,145.899551 511.017303,144.556366 510.732849,143.244385 
	C507.653137,143.244385 504.875397,143.244385 501.974274,143.244385 
	C501.974274,163.361786 501.974274,183.245270 501.974274,203.189011 
	C505.406036,203.189011 508.514069,203.189011 512.140625,203.189011 
	C512.140625,196.115189 512.140625,189.271820 512.140625,183.023788 
	C515.647766,184.521683 518.910156,185.915070 522.976379,187.421066 
M287.493896,165.499588 
	C287.493896,172.433899 287.493896,179.368195 287.493896,186.391602 
	C291.312500,186.391602 294.400146,186.391602 297.861542,186.391602 
	C297.861542,177.606735 297.632019,169.135681 298.000488,160.690704 
	C298.111969,158.136200 299.285950,155.090897 301.019531,153.262466 
	C304.088562,150.025620 308.302460,149.437943 312.575104,151.168091 
	C316.664093,152.823837 317.385986,156.375381 317.400024,160.214920 
	C317.431488,168.834885 317.409851,177.455048 317.409851,186.247620 
	C321.177704,186.247620 324.393433,186.247620 327.868774,186.247620 
	C327.868774,175.892319 328.196533,165.896744 327.770813,155.933350 
	C327.392456,147.077896 321.721527,141.785629 312.761475,142.001175 
	C308.004303,142.115616 303.284821,143.798523 297.866058,144.913834 
	C297.866058,138.506180 297.866058,131.486740 297.866058,124.373138 
	C293.964691,124.373138 290.877899,124.373138 287.493286,124.373138 
	C287.493286,137.927795 287.493286,151.213745 287.493896,165.499588 
M624.241516,179.021088 
	C618.498230,177.516861 616.030029,173.414383 615.038879,167.246521 
	C625.735474,167.246521 636.101624,167.246521 646.784668,167.246521 
	C646.646667,164.312454 646.680481,161.989731 646.405518,159.704163 
	C645.150085,149.266922 638.876465,142.724731 629.437073,141.882401 
	C617.493591,140.816605 608.812683,146.070206 605.927368,156.543274 
	C603.443970,165.557632 604.337708,174.268219 611.147400,181.186478 
	C618.353210,188.507217 627.496582,188.549759 636.759216,186.226669 
	C643.977356,184.416351 644.678589,182.755524 642.691162,176.770767 
	C636.647705,177.589172 630.868164,178.371841 624.241516,179.021088 
M490.042206,159.681152 
	C489.568542,147.373077 483.888702,141.841263 471.584503,141.961639 
	C468.616394,141.990662 465.599945,142.363464 462.699707,143.003815 
	C455.514954,144.590118 454.827087,145.952698 457.008301,153.070938 
	C474.301636,147.638168 481.525055,150.078766 479.434265,160.079422 
	C473.838257,160.444229 468.301605,160.304047 462.965668,161.271225 
	C455.085480,162.699554 451.082703,168.381577 451.736755,175.900940 
	C452.331116,182.734070 457.764069,187.918945 465.551422,187.365784 
	C470.224548,187.033829 474.733154,184.379288 479.313995,182.763733 
	C479.752838,182.608963 480.179565,182.419769 480.722595,182.202225 
	C480.907104,183.617950 481.072235,184.884903 481.246674,186.223373 
	C484.214874,186.223373 486.990509,186.223373 490.045959,186.223373 
	C490.045959,177.556839 490.045959,169.097183 490.042206,159.681152 
M666.004150,180.368286 
	C666.037354,173.372116 665.661011,166.337570 666.311401,159.399246 
	C666.561218,156.734665 668.548889,153.345703 670.785889,151.917099 
	C678.218323,147.170471 685.711304,151.560654 685.817749,160.356812 
	C685.921814,168.948227 685.840393,177.541916 685.840393,186.221130 
	C689.560791,186.221130 692.666016,186.221130 695.943481,186.221130 
	C695.943481,175.713745 696.155457,165.404922 695.866272,155.110168 
	C695.684631,148.643463 692.079773,144.126846 686.178711,142.646744 
	C679.290222,140.918930 672.606812,141.181351 667.131653,146.676834 
	C666.852173,146.957352 666.354736,147.020660 665.705383,147.290359 
	C665.361450,145.714050 665.062317,144.342682 664.813965,143.204376 
	C661.627014,143.204376 658.871399,143.204376 656.103516,143.204376 
	C656.103516,157.782806 656.103516,172.023621 656.103516,186.445923 
	C659.456421,186.445923 662.533325,186.445923 666.003174,186.445923 
	C666.003174,184.584381 666.003174,182.955765 666.004150,180.368286 
M367.428345,185.877792 
	C370.281067,186.101608 373.133759,186.325439 376.111084,186.559036 
	C376.111084,176.068695 376.343597,166.416306 376.038635,156.780899 
	C375.787811,148.856506 370.838470,143.327072 362.779083,142.314651 
	C358.080261,141.724380 353.103455,141.988953 348.432465,142.849823 
	C341.243134,144.174835 340.819458,145.389603 342.686340,152.740662 
	C361.111237,148.178329 367.219360,150.133499 365.239532,160.156525 
	C362.145111,160.156525 358.990387,159.931122 355.883362,160.219742 
	C352.760284,160.509842 349.585236,161.000763 346.608948,161.953445 
	C340.262817,163.984726 337.211212,168.704742 337.538879,175.249695 
	C337.837341,181.211853 341.624847,185.706284 347.899506,187.077530 
	C353.454834,188.291580 358.822174,187.795074 363.644257,184.353363 
	C364.976410,183.402557 366.561279,182.007629 367.428345,185.877792 
z"/>
<path fill="#11ECF0" opacity="1.000000" stroke="none" 
	d="
M816.209595,180.799500 
	C818.418884,183.477158 820.295471,185.284927 824.026306,184.413025 
	C825.558960,184.054840 828.061462,185.777954 829.452148,187.206955 
	C840.720825,198.785919 851.872498,210.479919 862.966858,222.226608 
	C867.382996,226.902451 867.055054,231.487732 862.300354,236.136734 
	C856.808472,241.506470 851.729675,242.033142 847.116699,237.341049 
	C836.256348,226.294250 825.535095,215.110840 814.748108,203.991821 
	C812.206665,201.372147 811.254761,198.607208 811.285461,194.661255 
	C811.306519,191.949402 808.110840,188.997528 805.852112,186.631012 
	C805.272156,186.023407 802.536011,186.817139 801.232910,187.655197 
	C781.821106,200.139633 756.972107,199.742752 737.639832,186.510010 
	C718.376526,173.324478 709.052673,149.835175 714.016541,126.996468 
	C718.938416,104.351242 736.747986,87.226318 759.854492,82.920578 
	C782.633301,78.675880 806.158325,89.232056 818.646057,109.301506 
	C830.959106,129.090195 829.769043,154.973053 815.657776,174.184998 
	C814.970642,175.120499 814.246338,176.028671 813.275757,177.292908 
	C814.138550,178.339890 815.035400,179.428070 816.209595,180.799500 
M725.120667,133.922180 
	C725.188538,138.246246 724.742859,142.651306 725.409912,146.880875 
	C728.983704,169.541061 751.038757,186.742355 773.435425,184.614380 
	C798.368042,182.245468 815.783325,162.316162 815.007629,137.040924 
	C814.307556,114.230469 794.837219,94.978249 771.640625,94.159813 
	C748.284180,93.335739 730.385803,108.316315 725.120667,133.922180 
z"/>
<path fill="#19EDEA" opacity="1.000000" stroke="none" 
	d="
M216.002731,186.998474 
	C216.002731,186.998474 215.565109,186.862854 215.248993,186.643555 
	C214.695923,186.188080 214.410553,186.058304 214.076797,186.034943 
	C214.076797,186.034943 214.083282,185.951385 214.089905,185.608643 
	C213.764252,184.504517 213.431992,183.743134 213.099716,182.981735 
	C213.041489,182.551651 212.983261,182.121567 212.865097,181.042114 
	C212.232986,178.923340 211.660828,177.453949 211.088654,175.984543 
	C211.042816,175.552338 210.996979,175.120148 210.893158,173.994827 
	C209.573517,169.198425 208.311874,165.095154 207.050217,160.991867 
	C207.003464,160.560181 206.956726,160.128494 206.846542,159.006012 
	C203.993317,148.717178 201.203552,139.119125 198.413773,129.521072 
	C198.504578,129.083466 198.595398,128.645859 199.289032,128.116867 
	C202.917770,128.015396 205.943710,128.005310 208.969635,127.995216 
	C209.241837,128.495132 209.514038,128.995056 209.839752,130.124893 
	C210.468872,132.663361 211.044464,134.571930 211.620056,136.480484 
	C211.620056,136.480484 211.631943,136.818283 211.691193,137.299835 
	C212.138824,138.858978 212.527206,139.936584 212.915588,141.014175 
	C212.959427,141.446960 213.003265,141.879730 213.087891,142.983734 
	C213.737381,145.438477 214.346115,147.221985 214.954834,149.005508 
	C214.995071,149.438538 215.035324,149.871552 215.115997,150.975586 
	C215.765442,153.430740 216.374466,155.214905 216.983490,156.999069 
	C217.021057,157.432404 217.058640,157.865738 217.133926,158.995514 
	C218.198090,163.612946 219.224518,167.533920 220.250961,171.454910 
	C220.621796,171.433624 220.992615,171.412338 221.363449,171.391052 
	C221.806015,169.566132 222.248581,167.741211 222.691132,165.916290 
	C222.811005,165.499161 222.930862,165.082047 223.345825,164.106094 
	C227.129837,151.738373 230.618729,139.929459 234.107620,128.120560 
	C234.107620,128.120560 234.541458,127.972183 235.185913,127.983063 
	C238.229309,127.939766 240.628265,127.885590 243.027206,127.831406 
	C243.027206,127.831406 243.412704,128.036102 243.643738,128.487061 
	C246.216537,136.297989 248.558289,143.657944 250.900040,151.017914 
	C250.962723,151.447006 251.025406,151.876114 251.159546,152.986023 
	C252.926254,158.921722 254.621490,164.176605 256.316711,169.431488 
	C256.996643,169.367920 257.676575,169.304352 258.356506,169.240784 
	C261.589722,155.845398 264.822968,142.450012 268.056183,129.054626 
	C268.280792,128.817627 268.497101,128.573303 269.306610,128.174225 
	C272.906708,128.024704 275.905304,128.022629 278.903931,128.020569 
	C278.948456,128.464386 278.992981,128.908218 278.816864,129.947937 
	C278.172791,132.391632 277.749390,134.239426 277.325989,136.087219 
	C277.208649,136.505402 277.091339,136.923569 276.698364,137.914551 
	C275.643585,141.662476 274.864441,144.837601 274.085297,148.012711 
	C274.085297,148.012711 273.881165,148.393417 273.600586,148.865814 
	C271.978455,154.584290 270.636963,159.830383 269.295471,165.076492 
	C269.180176,165.495804 269.064850,165.915115 268.660339,166.897217 
	C267.343719,171.332108 266.316345,175.204224 265.288971,179.076355 
	C265.181030,179.497711 265.073120,179.919052 264.696045,180.886230 
	C264.029510,182.969467 263.632141,184.506866 263.234772,186.044266 
	C263.234772,186.044266 262.951508,186.361969 262.443481,186.520905 
	C259.295044,186.791870 256.654663,186.903931 254.014252,187.015991 
	C253.617126,186.954926 253.220001,186.893860 252.489716,186.505005 
	C251.780487,185.450851 251.404404,184.724503 251.028305,183.998154 
	C250.989670,183.564850 250.951035,183.131546 250.843231,182.014557 
	C249.294159,176.741013 247.814255,172.151138 246.334351,167.561264 
	C246.334351,167.561264 246.307983,167.215881 246.231018,166.688049 
	C243.855301,158.406570 241.556580,150.652908 239.257843,142.899231 
	C238.937790,142.931747 238.617752,142.964249 238.297699,142.996750 
	C234.633026,155.691452 230.968369,168.386139 227.303711,181.080826 
	C227.181503,181.497711 227.059280,181.914597 226.659698,182.859222 
	C226.255341,184.230316 226.128372,185.073685 226.001389,185.917038 
	C226.001389,185.917038 225.918579,185.962845 225.703461,186.073349 
	C225.170776,186.315292 224.990280,186.551529 224.946854,186.892548 
	C224.946854,186.892548 224.458298,186.886887 223.890961,186.773346 
	C220.883331,186.772690 218.443039,186.885590 216.002731,186.998474 
z"/>
<path fill="#F5F5F5" opacity="1.000000" stroke="none" 
	d="
M393.124756,186.432632 
	C391.548676,186.349258 390.417023,186.267441 389.247162,186.182846 
	C389.247162,166.708801 389.247162,147.459976 389.247162,128.091293 
	C392.776306,128.091293 396.054016,128.091293 399.785400,128.091293 
	C399.785400,136.034134 399.785400,143.785568 399.785400,151.699188 
	C409.997406,151.699188 419.753021,151.699188 429.861938,151.699188 
	C429.861938,143.908569 429.861938,136.314102 429.861938,128.314224 
	C433.559143,128.314224 436.912781,128.314224 440.524017,128.314224 
	C440.524017,147.588745 440.524017,166.804291 440.524017,186.276688 
	C436.999298,186.276688 433.743835,186.276688 430.015015,186.276688 
	C430.015015,177.850113 430.015015,169.621811 430.015015,161.329529 
	C419.761627,161.329529 409.981232,161.329529 399.768433,161.329529 
	C399.768433,169.605743 399.768433,177.713516 399.768433,186.434189 
	C397.418762,186.434189 395.493958,186.434189 393.124756,186.432632 
z"/>
<path fill="#F4F4F4" opacity="1.000000" stroke="none" 
	d="
M597.235107,168.357880 
	C595.193726,182.694412 586.399658,189.772827 574.040710,187.064880 
	C571.082825,186.416809 568.380188,184.603424 565.229736,183.176285 
	C565.229736,189.508362 565.229736,196.188507 565.229736,203.095673 
	C561.439392,203.095673 558.182556,203.095673 554.608032,203.095673 
	C554.608032,183.152435 554.608032,163.406113 554.608032,143.628357 
	C561.637573,141.808975 563.041870,142.290314 564.134155,146.459213 
	C567.837708,144.962402 571.481689,142.623047 575.377625,142.075058 
	C587.846436,140.321289 596.307800,148.202179 597.391541,161.957596 
	C597.547119,163.933289 597.324341,165.938766 597.235107,168.357880 
M585.201660,156.575516 
	C582.080322,151.268356 577.316589,149.085663 571.941040,150.499557 
	C566.726013,151.871231 564.720825,155.026993 564.751587,161.843506 
	C564.762085,164.169373 564.777649,166.495651 564.832153,168.820786 
	C564.972839,174.824692 567.595154,178.210968 572.768799,179.112549 
	C579.069092,180.210464 584.501526,177.731995 585.664246,171.897919 
	C586.597229,167.216309 585.668579,162.163681 585.201660,156.575516 
z"/>
<path fill="#F9F9F8" opacity="1.000000" stroke="none" 
	d="
M522.574463,187.364746 
	C518.910156,185.915070 515.647766,184.521683 512.140625,183.023788 
	C512.140625,189.271820 512.140625,196.115189 512.140625,203.189011 
	C508.514069,203.189011 505.406036,203.189011 501.974274,203.189011 
	C501.974274,183.245270 501.974274,163.361786 501.974274,143.244385 
	C504.875397,143.244385 507.653137,143.244385 510.732849,143.244385 
	C511.017303,144.556366 511.308502,145.899551 511.733002,147.857498 
	C516.265686,142.940201 521.513306,141.295013 527.382629,142.059509 
	C529.958862,142.395081 532.662292,143.133743 534.905273,144.401688 
	C543.150208,149.062531 546.637268,161.738937 543.190491,173.498154 
	C540.308533,183.330475 533.903442,187.742111 522.574463,187.364746 
M513.684753,175.584030 
	C519.961609,181.403900 528.598511,180.520020 532.023987,173.461029 
	C534.854187,167.628891 534.704468,161.505905 531.870544,155.710190 
	C529.862366,151.603104 525.910400,149.303177 521.626892,150.330780 
	C518.270569,151.135941 513.147461,153.586578 512.751343,155.963135 
	C511.729340,162.095505 512.891785,168.591965 513.684753,175.584030 
z"/>
<path fill="#19E9E8" opacity="1.000000" stroke="none" 
	d="
M287.493591,164.999634 
	C287.493286,151.213745 287.493286,137.927795 287.493286,124.373138 
	C290.877899,124.373138 293.964691,124.373138 297.866058,124.373138 
	C297.866058,131.486740 297.866058,138.506180 297.866058,144.913834 
	C303.284821,143.798523 308.004303,142.115616 312.761475,142.001175 
	C321.721527,141.785629 327.392456,147.077896 327.770813,155.933350 
	C328.196533,165.896744 327.868774,175.892319 327.868774,186.247620 
	C324.393433,186.247620 321.177704,186.247620 317.409851,186.247620 
	C317.409851,177.455048 317.431488,168.834885 317.400024,160.214920 
	C317.385986,156.375381 316.664093,152.823837 312.575104,151.168091 
	C308.302460,149.437943 304.088562,150.025620 301.019531,153.262466 
	C299.285950,155.090897 298.111969,158.136200 298.000488,160.690704 
	C297.632019,169.135681 297.861542,177.606735 297.861542,186.391602 
	C294.400146,186.391602 291.312500,186.391602 287.493896,186.391602 
	C287.493896,179.368195 287.493896,172.433899 287.493591,164.999634 
z"/>
<path fill="#F6F6F6" opacity="1.000000" stroke="none" 
	d="
M624.665039,179.087799 
	C630.868164,178.371841 636.647705,177.589172 642.691162,176.770767 
	C644.678589,182.755524 643.977356,184.416351 636.759216,186.226669 
	C627.496582,188.549759 618.353210,188.507217 611.147400,181.186478 
	C604.337708,174.268219 603.443970,165.557632 605.927368,156.543274 
	C608.812683,146.070206 617.493591,140.816605 629.437073,141.882401 
	C638.876465,142.724731 645.150085,149.266922 646.405518,159.704163 
	C646.680481,161.989731 646.646667,164.312454 646.784668,167.246521 
	C636.101624,167.246521 625.735474,167.246521 615.038879,167.246521 
	C616.030029,173.414383 618.498230,177.516861 624.665039,179.087799 
M622.626953,160.669968 
	C627.330505,160.669968 632.034119,160.669968 636.877136,160.669968 
	C635.405029,152.253998 632.169373,149.253448 625.790710,149.543991 
	C619.429016,149.833755 615.729492,153.593781 615.306885,160.671524 
	C617.447815,160.671524 619.564270,160.671524 622.626953,160.669968 
z"/>
<path fill="#F5F5F5" opacity="1.000000" stroke="none" 
	d="
M490.044067,160.159332 
	C490.045959,169.097183 490.045959,177.556839 490.045959,186.223373 
	C486.990509,186.223373 484.214874,186.223373 481.246674,186.223373 
	C481.072235,184.884903 480.907104,183.617950 480.722595,182.202225 
	C480.179565,182.419769 479.752838,182.608963 479.313995,182.763733 
	C474.733154,184.379288 470.224548,187.033829 465.551422,187.365784 
	C457.764069,187.918945 452.331116,182.734070 451.736755,175.900940 
	C451.082703,168.381577 455.085480,162.699554 462.965668,161.271225 
	C468.301605,160.304047 473.838257,160.444229 479.434265,160.079422 
	C481.525055,150.078766 474.301636,147.638168 457.008301,153.070938 
	C454.827087,145.952698 455.514954,144.590118 462.699707,143.003815 
	C465.599945,142.363464 468.616394,141.990662 471.584503,141.961639 
	C483.888702,141.841263 489.568542,147.373077 490.044067,160.159332 
M461.309052,172.780685 
	C462.035065,178.816772 465.073425,180.956039 471.635345,180.051346 
	C478.449371,179.111893 480.906433,174.982819 479.349915,166.807846 
	C475.768890,166.807846 472.141693,166.701340 468.523743,166.838608 
	C465.083862,166.969086 462.472290,168.456467 461.309052,172.780685 
z"/>
<path fill="#FAFAFA" opacity="1.000000" stroke="none" 
	d="
M666.003662,180.847717 
	C666.003174,182.955765 666.003174,184.584381 666.003174,186.445923 
	C662.533325,186.445923 659.456421,186.445923 656.103516,186.445923 
	C656.103516,172.023621 656.103516,157.782806 656.103516,143.204376 
	C658.871399,143.204376 661.627014,143.204376 664.813965,143.204376 
	C665.062317,144.342682 665.361450,145.714050 665.705383,147.290359 
	C666.354736,147.020660 666.852173,146.957352 667.131653,146.676834 
	C672.606812,141.181351 679.290222,140.918930 686.178711,142.646744 
	C692.079773,144.126846 695.684631,148.643463 695.866272,155.110168 
	C696.155457,165.404922 695.943481,175.713745 695.943481,186.221130 
	C692.666016,186.221130 689.560791,186.221130 685.840393,186.221130 
	C685.840393,177.541916 685.921814,168.948227 685.817749,160.356812 
	C685.711304,151.560654 678.218323,147.170471 670.785889,151.917099 
	C668.548889,153.345703 666.561218,156.734665 666.311401,159.399246 
	C665.661011,166.337570 666.037354,173.372116 666.003662,180.847717 
z"/>
<path fill="#2DDBDB" opacity="1.000000" stroke="none" 
	d="
M367.227539,185.503632 
	C366.561279,182.007629 364.976410,183.402557 363.644257,184.353363 
	C358.822174,187.795074 353.454834,188.291580 347.899506,187.077530 
	C341.624847,185.706284 337.837341,181.211853 337.538879,175.249695 
	C337.211212,168.704742 340.262817,163.984726 346.608948,161.953445 
	C349.585236,161.000763 352.760284,160.509842 355.883362,160.219742 
	C358.990387,159.931122 362.145111,160.156525 365.239532,160.156525 
	C367.219360,150.133499 361.111237,148.178329 342.686340,152.740662 
	C340.819458,145.389603 341.243134,144.174835 348.432465,142.849823 
	C353.103455,141.988953 358.080261,141.724380 362.779083,142.314651 
	C370.838470,143.327072 375.787811,148.856506 376.038635,156.780899 
	C376.343597,166.416306 376.111084,176.068695 376.111084,186.559036 
	C373.133759,186.325439 370.281067,186.101608 367.227539,185.503632 
M350.008911,178.971298 
	C354.842194,181.015717 359.973389,181.104126 363.437592,177.251495 
	C365.565887,174.884613 365.609589,170.643295 366.813904,166.464462 
	C362.018707,166.464462 358.862610,166.190125 355.770905,166.519760 
	C348.632812,167.280884 346.363739,170.796371 347.448181,177.820267 
	C343.879272,174.912155 344.841553,171.309738 347.152771,168.734879 
	C349.223022,166.428436 352.565582,165.263992 355.340790,163.586685 
	C348.813293,162.319702 342.680603,164.905945 340.606934,169.800171 
	C338.569611,174.608597 340.349670,180.139603 344.986328,183.407654 
	C348.939606,186.194031 357.073669,185.721649 360.837463,181.974869 
	C358.174255,181.974869 355.943970,182.380341 353.962280,181.852463 
	C352.234772,181.392273 350.787659,179.879425 350.008911,178.971298 
M367.985901,171.451233 
	C367.814117,172.923813 368.060852,174.627594 367.397400,175.828598 
	C364.660309,180.783630 368.374298,182.010162 371.608673,184.097229 
	C372.251282,182.880020 373.033295,182.055710 373.090942,181.183517 
	C373.483612,175.244064 373.549500,169.279846 374.049469,163.351334 
	C375.091461,150.995377 369.424774,145.111725 356.765167,144.340851 
	C353.095093,144.117340 348.135803,143.609467 345.109039,148.025925 
	C349.650635,148.025925 353.805054,148.119888 357.953247,148.000015 
	C362.276794,147.875061 365.862122,149.652466 367.003143,153.592636 
	C367.929413,156.791367 367.097321,160.499283 367.045044,163.981369 
	C366.796722,163.942200 366.548401,163.903046 366.300110,163.863892 
	C366.862305,166.108292 367.424500,168.352692 367.985901,171.451233 
z"/>
<path fill="#033A39" opacity="1.000000" stroke="none" 
	d="
M227.651855,181.005463 
	C230.968369,168.386139 234.633026,155.691452 238.297699,142.996750 
	C238.617752,142.964249 238.937790,142.931747 239.257843,142.899231 
	C241.556580,150.652908 243.855301,158.406570 246.117752,166.557022 
	C244.769547,164.140686 243.275696,161.395264 242.196671,158.495483 
	C241.110153,155.575562 240.435959,152.502213 238.563538,149.282440 
	C237.015335,154.241577 235.546997,159.227432 233.897858,164.152771 
	C232.015930,169.773361 229.972961,175.340012 227.651855,181.005463 
z"/>
<path fill="#033A39" opacity="1.000000" stroke="none" 
	d="
M267.684692,129.119568 
	C264.822968,142.450012 261.589722,155.845398 258.356506,169.240784 
	C257.676575,169.304352 256.996643,169.367920 256.316711,169.431488 
	C254.621490,164.176605 252.926254,158.921722 251.273056,153.291626 
	C253.222763,156.733597 255.130447,160.550812 257.371216,165.034561 
	C259.680664,156.376297 261.852844,148.093521 264.110260,139.834076 
	C265.087280,136.259460 266.240173,132.732895 267.684692,129.119568 
z"/>
<path fill="#033A39" opacity="1.000000" stroke="none" 
	d="
M233.742706,128.146072 
	C230.618729,139.929459 227.129837,151.738373 223.365082,163.780273 
	C222.803696,163.625748 222.193878,163.135651 222.279327,162.865433 
	C225.940125,151.288589 229.662735,139.731277 233.742706,128.146072 
z"/>
<path fill="#033A39" opacity="1.000000" stroke="none" 
	d="
M198.283951,129.956512 
	C201.203552,139.119125 203.993317,148.717178 206.735474,158.698868 
	C205.476379,156.359848 203.903610,153.736145 203.125519,150.894821 
	C201.268906,144.115143 199.787231,137.232819 198.283951,129.956512 
z"/>
<path fill="#033A39" opacity="1.000000" stroke="none" 
	d="
M251.170746,150.799072 
	C248.558289,143.657944 246.216537,136.297989 243.852798,128.549683 
	C244.812653,129.997665 246.112152,131.735764 246.716064,133.688934 
	C248.442505,139.272583 249.886429,144.943588 251.170746,150.799072 
z"/>
<path fill="#033A39" opacity="1.000000" stroke="none" 
	d="
M222.322449,165.909546 
	C222.248581,167.741211 221.806015,169.566132 221.363449,171.391052 
	C220.992615,171.412338 220.621796,171.433624 220.250961,171.454910 
	C219.224518,167.533920 218.198090,163.612946 217.232483,159.307388 
	C218.165497,160.364197 218.999908,161.830338 219.923203,163.238220 
	C220.534073,164.169678 221.272461,165.017532 222.322449,165.909546 
z"/>
<path fill="#033A39" opacity="1.000000" stroke="none" 
	d="
M269.632019,164.980042 
	C270.636963,159.830383 271.978455,154.584290 273.592224,149.081619 
	C274.476562,154.641449 272.719788,159.883148 269.632019,164.980042 
z"/>
<path fill="#033A39" opacity="1.000000" stroke="none" 
	d="
M246.222076,168.003494 
	C247.814255,172.151138 249.294159,176.741013 250.730927,181.706802 
	C249.161804,177.537048 247.635818,172.991394 246.222076,168.003494 
z"/>
<path fill="#033A39" opacity="1.000000" stroke="none" 
	d="
M206.782379,161.218201 
	C208.311874,165.095154 209.573517,169.198425 210.783432,173.686813 
	C209.325974,169.862793 207.920258,165.653671 206.782379,161.218201 
z"/>
<path fill="#033A39" opacity="1.000000" stroke="none" 
	d="
M265.639679,178.994354 
	C266.316345,175.204224 267.343719,171.332108 268.642639,167.223694 
	C267.939575,170.962372 266.964996,174.937347 265.639679,178.994354 
z"/>
<path fill="#033A39" opacity="1.000000" stroke="none" 
	d="
M216.085846,187.368286 
	C218.443039,186.885590 220.883331,186.772690 223.655945,186.839935 
	C221.664841,190.341782 218.933182,189.217331 216.085846,187.368286 
z"/>
<path fill="#033A39" opacity="1.000000" stroke="none" 
	d="
M208.892639,127.615265 
	C205.943710,128.005310 202.917770,128.015396 199.445709,127.946663 
	C202.077148,124.639587 205.435043,125.761086 208.892639,127.615265 
z"/>
<path fill="#033A39" opacity="1.000000" stroke="none" 
	d="
M278.855347,127.637344 
	C275.905304,128.022629 272.906708,128.024704 269.459351,127.982948 
	C272.056976,124.578812 275.420410,125.752731 278.855347,127.637344 
z"/>
<path fill="#033A39" opacity="1.000000" stroke="none" 
	d="
M274.433350,147.938751 
	C274.864441,144.837601 275.643585,141.662476 276.689026,138.241379 
	C276.230652,141.285202 275.506042,144.574997 274.433350,147.938751 
z"/>
<path fill="#033A39" opacity="1.000000" stroke="none" 
	d="
M254.099182,187.392761 
	C256.654663,186.903931 259.295044,186.791870 262.370056,186.720657 
	C260.362152,190.783615 257.227264,188.884369 254.099182,187.392761 
z"/>
<path fill="#033A39" opacity="1.000000" stroke="none" 
	d="
M242.926392,127.475258 
	C240.628265,127.885590 238.229309,127.939766 235.393066,127.884819 
	C237.579025,127.556831 240.202301,127.337967 242.926392,127.475258 
z"/>
<path fill="#033A39" opacity="1.000000" stroke="none" 
	d="
M277.662720,136.015930 
	C277.749390,134.239426 278.172791,132.391632 278.834473,130.283844 
	C278.714996,131.997437 278.357239,133.971054 277.662720,136.015930 
z"/>
<path fill="#033A39" opacity="1.000000" stroke="none" 
	d="
M217.235626,156.781509 
	C216.374466,155.214905 215.765442,153.430740 215.217865,151.286438 
	C216.015457,152.805527 216.751602,154.684738 217.235626,156.781509 
z"/>
<path fill="#033A39" opacity="1.000000" stroke="none" 
	d="
M215.213928,148.793762 
	C214.346115,147.221985 213.737381,145.438477 213.190216,143.294495 
	C213.992188,144.816696 214.732605,146.699371 215.213928,148.793762 
z"/>
<path fill="#033A39" opacity="1.000000" stroke="none" 
	d="
M210.827118,176.179535 
	C211.660828,177.453949 212.232986,178.923340 212.750305,180.736511 
	C211.985504,179.511688 211.275543,177.943115 210.827118,176.179535 
z"/>
<path fill="#033A39" opacity="1.000000" stroke="none" 
	d="
M263.558685,185.988632 
	C263.632141,184.506866 264.029510,182.969467 264.687805,181.213257 
	C264.593353,182.640640 264.237976,184.286819 263.558685,185.988632 
z"/>
<path fill="#033A39" opacity="1.000000" stroke="none" 
	d="
M211.743881,136.053619 
	C211.044464,134.571930 210.468872,132.663361 209.966675,130.381378 
	C210.649292,131.880890 211.258499,133.753815 211.743881,136.053619 
z"/>
<path fill="#033A39" opacity="1.000000" stroke="none" 
	d="
M213.181458,140.793762 
	C212.527206,139.936584 212.138824,138.858978 211.800934,137.428345 
	C212.383408,138.241333 212.915375,139.407349 213.181458,140.793762 
z"/>
<path fill="#033A39" opacity="1.000000" stroke="none" 
	d="
M212.840729,183.167145 
	C213.431992,183.743134 213.764252,184.504517 214.053131,185.588547 
	C213.533737,185.058304 213.057724,184.205429 212.840729,183.167145 
z"/>
<path fill="#033A39" opacity="1.000000" stroke="none" 
	d="
M226.319305,185.892334 
	C226.128372,185.073685 226.255341,184.230316 226.638428,183.185287 
	C226.808777,183.944962 226.723007,184.906296 226.319305,185.892334 
z"/>
<path fill="#033A39" opacity="1.000000" stroke="none" 
	d="
M250.777390,184.204346 
	C251.404404,184.724503 251.780487,185.450851 252.187363,186.489136 
	C251.654266,186.004211 251.090363,185.207382 250.777390,184.204346 
z"/>
<path fill="#033A39" opacity="1.000000" stroke="none" 
	d="
M214.120850,186.296860 
	C214.410553,186.058304 214.695923,186.188080 215.019928,186.646454 
	C214.792953,186.765350 214.478912,186.662064 214.120850,186.296860 
z"/>
<path fill="#033A39" opacity="1.000000" stroke="none" 
	d="
M225.207764,186.903015 
	C224.990280,186.551529 225.170776,186.315292 225.710938,186.120071 
	C225.778564,186.342026 225.623611,186.627762 225.207764,186.903015 
z"/>
<path fill="#040909" opacity="1.000000" stroke="none" 
	d="
M725.162781,133.473816 
	C730.385803,108.316315 748.284180,93.335739 771.640625,94.159813 
	C794.837219,94.978249 814.307556,114.230469 815.007629,137.040924 
	C815.783325,162.316162 798.368042,182.245468 773.435425,184.614380 
	C751.038757,186.742355 728.983704,169.541061 725.409912,146.880875 
	C724.742859,142.651306 725.188538,138.246246 725.162781,133.473816 
M784.567749,138.032959 
	C790.704773,131.011871 791.577759,123.478004 787.048706,116.621765 
	C782.500244,109.735970 772.500427,106.932907 763.294983,109.963364 
	C755.060974,112.674019 750.765747,119.010696 751.325562,127.900574 
	C755.071533,127.900574 758.834473,127.900574 762.649353,127.900574 
	C762.807251,127.052284 762.913940,126.408783 763.047913,125.770973 
	C763.772949,122.317383 765.760376,119.635643 769.340820,119.839096 
	C771.655945,119.970642 774.548584,121.263474 775.982544,123.017044 
	C778.351501,125.913948 777.375854,129.417572 774.951355,132.111908 
	C773.186768,134.072906 770.990356,135.642700 769.007629,137.410675 
	C764.662659,141.285080 762.658630,146.024094 763.364075,151.798706 
	C767.147827,151.798706 770.565247,151.798706 774.432251,151.798706 
	C774.232605,144.740875 779.974609,142.286896 784.567749,138.032959 
M744.945435,109.433815 
	C734.160461,119.263260 729.383606,131.206299 732.572693,146.168137 
	C734.154480,145.254608 735.679138,143.887299 735.658020,142.544296 
	C735.405273,126.444756 743.280212,113.690392 757.543335,107.201904 
	C758.622559,106.710960 759.173950,105.059631 759.970703,103.947693 
	C758.591492,103.669571 756.915283,102.751740 755.886780,103.229164 
	C752.307922,104.890549 748.953491,107.035378 744.945435,109.433815 
M762.065491,167.871765 
	C763.851379,171.709824 767.035217,173.806717 770.849487,172.058105 
	C773.083557,171.033936 775.281921,168.087952 775.824890,165.636307 
	C776.717773,161.604584 772.732422,157.973602 768.587646,158.034485 
	C764.095947,158.100479 761.776550,161.237213 762.065491,167.871765 
z"/>
<path fill="#060707" opacity="1.000000" stroke="none" 
	d="
M585.383850,156.925598 
	C585.668579,162.163681 586.597229,167.216309 585.664246,171.897919 
	C584.501526,177.731995 579.069092,180.210464 572.768799,179.112549 
	C567.595154,178.210968 564.972839,174.824692 564.832153,168.820786 
	C564.777649,166.495651 564.762085,164.169373 564.751587,161.843506 
	C564.720825,155.026993 566.726013,151.871231 571.941040,150.499557 
	C577.316589,149.085663 582.080322,151.268356 585.383850,156.925598 
z"/>
<path fill="#070807" opacity="1.000000" stroke="none" 
	d="
M513.433167,175.263504 
	C512.891785,168.591965 511.729340,162.095505 512.751343,155.963135 
	C513.147461,153.586578 518.270569,151.135941 521.626892,150.330780 
	C525.910400,149.303177 529.862366,151.603104 531.870544,155.710190 
	C534.704468,161.505905 534.854187,167.628891 532.023987,173.461029 
	C528.598511,180.520020 519.961609,181.403900 513.433167,175.263504 
z"/>
<path fill="#151515" opacity="1.000000" stroke="none" 
	d="
M622.153809,160.670746 
	C619.564270,160.671524 617.447815,160.671524 615.306885,160.671524 
	C615.729492,153.593781 619.429016,149.833755 625.790710,149.543991 
	C632.169373,149.253448 635.405029,152.253998 636.877136,160.669968 
	C632.034119,160.669968 627.330505,160.669968 622.153809,160.670746 
z"/>
<path fill="#0A0B0A" opacity="1.000000" stroke="none" 
	d="
M461.399780,172.406113 
	C462.472290,168.456467 465.083862,166.969086 468.523743,166.838608 
	C472.141693,166.701340 475.768890,166.807846 479.349915,166.807846 
	C480.906433,174.982819 478.449371,179.111893 471.635345,180.051346 
	C465.073425,180.956039 462.035065,178.816772 461.399780,172.406113 
z"/>
<path fill="#06F9F8" opacity="1.000000" stroke="none" 
	d="
M367.986328,171.024170 
	C367.424500,168.352692 366.862305,166.108292 366.300110,163.863892 
	C366.548401,163.903046 366.796722,163.942200 367.045044,163.981369 
	C367.097321,160.499283 367.929413,156.791367 367.003143,153.592636 
	C365.862122,149.652466 362.276794,147.875061 357.953247,148.000015 
	C353.805054,148.119888 349.650635,148.025925 345.109039,148.025925 
	C348.135803,143.609467 353.095093,144.117340 356.765167,144.340851 
	C369.424774,145.111725 375.091461,150.995377 374.049469,163.351334 
	C373.549500,169.279846 373.483612,175.244064 373.090942,181.183517 
	C373.033295,182.055710 372.251282,182.880020 371.608673,184.097229 
	C368.374298,182.010162 364.660309,180.783630 367.397400,175.828598 
	C368.060852,174.627594 367.814117,172.923813 367.986328,171.024170 
z"/>
<path fill="#021A19" opacity="1.000000" stroke="none" 
	d="
M348.177063,177.760086 
	C346.363739,170.796371 348.632812,167.280884 355.770905,166.519760 
	C358.862610,166.190125 362.018707,166.464462 366.813904,166.464462 
	C365.609589,170.643295 365.565887,174.884613 363.437592,177.251495 
	C359.973389,181.104126 354.842194,181.015717 349.596558,178.914795 
	C349.184235,178.858276 349.214020,178.868515 349.148895,178.594650 
	C348.770721,178.138184 348.457642,177.955582 348.147949,177.776215 
	C348.151337,177.779419 348.177063,177.760086 348.177063,177.760086 
z"/>
<path fill="#09F9F5" opacity="1.000000" stroke="none" 
	d="
M349.200439,178.844986 
	C350.787659,179.879425 352.234772,181.392273 353.962280,181.852463 
	C355.943970,182.380341 358.174255,181.974869 360.837463,181.974869 
	C357.073669,185.721649 348.939606,186.194031 344.986328,183.407654 
	C340.349670,180.139603 338.569611,174.608597 340.606934,169.800171 
	C342.680603,164.905945 348.813293,162.319702 355.343811,163.591187 
	C352.565582,165.263992 349.223022,166.428436 347.152771,168.734879 
	C344.841553,171.309738 343.879272,174.912155 347.812622,177.790176 
	C348.177063,177.760086 348.151337,177.779419 348.198303,178.060959 
	C348.568207,178.517838 348.891113,178.693176 349.214020,178.868515 
	C349.214020,178.868515 349.184235,178.858276 349.200439,178.844986 
z"/>
<path fill="#F8F8F8" opacity="1.000000" stroke="none" 
	d="
M784.307373,138.282227 
	C779.974609,142.286896 774.232605,144.740875 774.432251,151.798706 
	C770.565247,151.798706 767.147827,151.798706 763.364075,151.798706 
	C762.658630,146.024094 764.662659,141.285080 769.007629,137.410675 
	C770.990356,135.642700 773.186768,134.072906 774.951355,132.111908 
	C777.375854,129.417572 778.351501,125.913948 775.982544,123.017044 
	C774.548584,121.263474 771.655945,119.970642 769.340820,119.839096 
	C765.760376,119.635643 763.772949,122.317383 763.047913,125.770973 
	C762.913940,126.408783 762.807251,127.052284 762.649353,127.900574 
	C758.834473,127.900574 755.071533,127.900574 751.325562,127.900574 
	C750.765747,119.010696 755.060974,112.674019 763.294983,109.963364 
	C772.500427,106.932907 782.500244,109.735970 787.048706,116.621765 
	C791.577759,123.478004 790.704773,131.011871 784.307373,138.282227 
z"/>
<path fill="#ECECEC" opacity="1.000000" stroke="none" 
	d="
M745.229614,109.215103 
	C748.953491,107.035378 752.307922,104.890549 755.886780,103.229164 
	C756.915283,102.751740 758.591492,103.669571 759.970703,103.947693 
	C759.173950,105.059631 758.622559,106.710960 757.543335,107.201904 
	C743.280212,113.690392 735.405273,126.444756 735.658020,142.544296 
	C735.679138,143.887299 734.154480,145.254608 732.572693,146.168137 
	C729.383606,131.206299 734.160461,119.263260 745.229614,109.215103 
z"/>
<path fill="#F6F6F6" opacity="1.000000" stroke="none" 
	d="
M761.986328,167.470428 
	C761.776550,161.237213 764.095947,158.100479 768.587646,158.034485 
	C772.732422,157.973602 776.717773,161.604584 775.824890,165.636307 
	C775.281921,168.087952 773.083557,171.033936 770.849487,172.058105 
	C767.035217,173.806717 763.851379,171.709824 761.986328,167.470428 
z"/>
<path fill="#2DDBDB" opacity="1.000000" stroke="none" 
	d="
M349.148895,178.594650 
	C348.891113,178.693176 348.568207,178.517838 348.194946,178.057739 
	C348.457642,177.955582 348.770721,178.138184 349.148895,178.594650 
z"/>
</svg>