<?xml version="1.0" encoding="UTF-8"?>
<!DOCTYPE svg PUBLIC "-//W3C//DTD SVG 1.1//EN" "http://www.w3.org/Graphics/SVG/1.1/DTD/svg11.dtd">
<svg xmlns="http://www.w3.org/2000/svg" version="1.1" width="1024px" height="310px" style="shape-rendering:geometricPrecision; text-rendering:geometricPrecision; image-rendering:optimizeQuality; fill-rule:evenodd; clip-rule:evenodd" xmlns:xlink="http://www.w3.org/1999/xlink">
<g><path style="opacity:1" fill="#020202" d="M -0.5,-0.5 C 340.833,-0.5 682.167,-0.5 1023.5,-0.5C 1023.5,102.833 1023.5,206.167 1023.5,309.5C 682.167,309.5 340.833,309.5 -0.5,309.5C -0.5,206.167 -0.5,102.833 -0.5,-0.5 Z"/></g>
<g><path style="opacity:1" fill="#28a5a6" d="M 777.5,80.5 C 777.5,80.8333 777.5,81.1667 777.5,81.5C 770.132,81.3169 762.799,81.6502 755.5,82.5C 755.918,81.7784 756.584,81.2784 757.5,81C 764.158,80.5004 770.825,80.3337 777.5,80.5 Z"/></g>
<g><path style="opacity:1" fill="#061e1f" d="M 777.5,80.5 C 770.825,80.3337 764.158,80.5004 757.5,81C 756.584,81.2784 755.918,81.7784 755.5,82.5C 749.038,83.6538 743.038,85.9871 737.5,89.5C 737.539,88.4168 737.873,87.4168 738.5,86.5C 750.943,80.0546 763.943,78.0546 777.5,80.5 Z"/></g>
<g><path style="opacity:1" fill="#072021" d="M 813.5,101.5 C 814.5,101.5 815.5,101.5 816.5,101.5C 817.8,104.757 819.634,107.757 822,110.5C 826.321,122.097 827.655,134.097 826,146.5C 825.902,149.522 825.068,152.189 823.5,154.5C 828.13,135.206 824.796,117.539 813.5,101.5 Z"/></g>
<g><path style="opacity:1" fill="#072020" d="M 244.5,132.5 C 243.262,130.786 242.595,128.786 242.5,126.5C 239.15,126.335 235.817,126.502 232.5,127C 231.239,130.952 229.906,134.786 228.5,138.5C 228.299,132.967 229.799,127.967 233,123.5C 236.411,124.293 239.911,124.793 243.5,125C 244.435,127.381 244.768,129.881 244.5,132.5 Z"/></g>
<g><path style="opacity:1" fill="#fcfcfc" d="M 438.5,126.5 C 438.5,145.833 438.5,165.167 438.5,184.5C 435.167,184.5 431.833,184.5 428.5,184.5C 428.5,176.167 428.5,167.833 428.5,159.5C 418.5,159.5 408.5,159.5 398.5,159.5C 397.507,167.65 397.174,175.983 397.5,184.5C 394.5,184.5 391.5,184.5 388.5,184.5C 388.5,165.5 388.5,146.5 388.5,127.5C 391.5,127.5 394.5,127.5 397.5,127.5C 397.175,135.352 397.508,143.018 398.5,150.5C 408.5,150.5 418.5,150.5 428.5,150.5C 428.5,142.5 428.5,134.5 428.5,126.5C 431.833,126.5 435.167,126.5 438.5,126.5 Z"/></g>
<g><path style="opacity:1" fill="#07faf5" d="M 210.5,138.5 C 210.5,138.833 210.5,139.167 210.5,139.5C 209.986,148.613 211.32,157.446 214.5,166C 214.333,167.167 214.167,168.333 214,169.5C 210.53,163.899 207.364,158.232 204.5,152.5C 204.5,152.167 204.5,151.833 204.5,151.5C 203.003,143.849 201.67,136.183 200.5,128.5C 202.199,128.34 203.866,128.506 205.5,129C 206.654,132.537 208.321,135.703 210.5,138.5 Z"/></g>
<g><path style="opacity:1" fill="#36dada" d="M 207.5,126.5 C 208.945,129.937 209.945,133.603 210.5,137.5C 210.5,137.833 210.5,138.167 210.5,138.5C 208.321,135.703 206.654,132.537 205.5,129C 203.866,128.506 202.199,128.34 200.5,128.5C 201.67,136.183 203.003,143.849 204.5,151.5C 203.03,147.088 201.363,142.755 199.5,138.5C 198.833,134.5 198.167,130.5 197.5,126.5C 200.833,126.5 204.167,126.5 207.5,126.5 Z"/></g>
<g><path style="opacity:1" fill="#35a4a5" d="M 286.5,123.5 C 286.5,123.167 286.5,122.833 286.5,122.5C 289.833,122.5 293.167,122.5 296.5,122.5C 296.175,130.352 296.508,138.018 297.5,145.5C 297.44,146.043 297.107,146.376 296.5,146.5C 295.503,138.862 295.169,131.196 295.5,123.5C 292.5,123.5 289.5,123.5 286.5,123.5 Z"/></g>
<g><path style="opacity:1" fill="#2de2e1" d="M 277.5,129.5 C 275.799,133.972 274.465,138.639 273.5,143.5C 273.167,143.5 272.833,143.5 272.5,143.5C 272.272,139.61 272.606,135.776 273.5,132C 272.878,129.52 271.544,129.02 269.5,130.5C 268.106,136.384 265.773,141.717 262.5,146.5C 263.178,140.765 264.178,135.098 265.5,129.5C 266.404,128.791 266.737,127.791 266.5,126.5C 270.167,126.5 273.833,126.5 277.5,126.5C 277.5,127.5 277.5,128.5 277.5,129.5 Z"/></g>
<g><path style="opacity:1" fill="#072d2d" d="M 207.5,126.5 C 204.167,126.5 200.833,126.5 197.5,126.5C 198.167,130.5 198.833,134.5 199.5,138.5C 198.685,137.571 197.852,136.571 197,135.5C 196.502,132.183 196.335,128.85 196.5,125.5C 200.371,125.185 204.038,125.518 207.5,126.5 Z"/></g>
<g><path style="opacity:1" fill="#023233" d="M 277.5,129.5 C 277.289,134.6 275.955,139.266 273.5,143.5C 274.465,138.639 275.799,133.972 277.5,129.5 Z"/></g>
<g><path style="opacity:1" fill="#012b2b" d="M 296.5,122.5 C 297.49,128.645 297.823,134.978 297.5,141.5C 298.833,141.5 300.167,141.5 301.5,141.5C 299.861,142.473 298.527,143.806 297.5,145.5C 296.508,138.018 296.175,130.352 296.5,122.5 Z"/></g>
<g><path style="opacity:1" fill="#022f2f" d="M 320.5,142.5 C 314.28,140.299 307.946,139.965 301.5,141.5C 303.571,140.191 306.071,139.525 309,139.5C 311.5,139.667 314,139.833 316.5,140C 318.32,140.2 319.653,141.034 320.5,142.5 Z"/></g>
<g><path style="opacity:1" fill="#d3d4d5" d="M 398.5,150.5 C 397.508,143.018 397.175,135.352 397.5,127.5C 394.5,127.5 391.5,127.5 388.5,127.5C 388.5,146.5 388.5,165.5 388.5,184.5C 388.167,184.5 387.833,184.5 387.5,184.5C 387.5,165.167 387.5,145.833 387.5,126.5C 391.167,126.5 394.833,126.5 398.5,126.5C 398.5,134.5 398.5,142.5 398.5,150.5 Z"/></g>
<g><path style="opacity:1" fill="#f4f4f4" d="M 461.5,140.5 C 466.511,140.334 471.511,140.501 476.5,141C 482.562,142.062 486.395,145.562 488,151.5C 488.5,162.495 488.667,173.495 488.5,184.5C 485.5,184.5 482.5,184.5 479.5,184.5C 479.762,183.022 479.429,181.689 478.5,180.5C 472.633,185.166 465.967,186.666 458.5,185C 451.262,181.345 448.762,175.512 451,167.5C 453.455,162.851 457.288,160.017 462.5,159C 467.823,158.501 473.156,158.334 478.5,158.5C 479.129,153.577 477.129,150.411 472.5,149C 469.167,148.333 465.833,148.333 462.5,149C 459.904,150.136 457.237,150.969 454.5,151.5C 454.187,148.753 454.52,146.086 455.5,143.5C 457.604,142.481 459.604,141.481 461.5,140.5 Z"/></g>
<g><path style="opacity:1" fill="#f7f7f7" d="M 510.5,201.5 C 507.167,201.5 503.833,201.5 500.5,201.5C 500.5,181.5 500.5,161.5 500.5,141.5C 503.5,141.5 506.5,141.5 509.5,141.5C 509.238,142.978 509.571,144.311 510.5,145.5C 518.395,139.376 526.728,138.876 535.5,144C 540.988,149.127 543.321,155.461 542.5,163C 542.628,179.206 534.628,186.872 518.5,186C 515.734,184.533 513.234,182.7 511,180.5C 510.5,187.492 510.334,194.492 510.5,201.5 Z"/></g>
<g><path style="opacity:1" fill="#f7f7f7" d="M 563.5,201.5 C 560.167,201.5 556.833,201.5 553.5,201.5C 553.5,181.5 553.5,161.5 553.5,141.5C 556.5,141.5 559.5,141.5 562.5,141.5C 562.343,142.873 562.51,144.207 563,145.5C 569.827,140.33 577.327,139.164 585.5,142C 592.97,146.775 596.304,153.608 595.5,162.5C 595.157,181.697 585.823,188.864 567.5,184C 566.333,182.833 565.167,181.667 564,180.5C 563.5,187.492 563.334,194.492 563.5,201.5 Z"/></g>
<g><path style="opacity:1" fill="#f6f6f6" d="M 644.5,155.5 C 644.5,158.833 644.5,162.167 644.5,165.5C 633.986,165.172 623.653,165.506 613.5,166.5C 614.377,171.446 617.044,174.946 621.5,177C 628.411,178.49 634.744,177.323 640.5,173.5C 641.833,176.5 641.833,179.5 640.5,182.5C 639.5,183 638.5,183.5 637.5,184C 613.219,189.788 602.052,180.288 604,155.5C 609.226,142.636 618.726,137.802 632.5,141C 638.918,143.911 642.918,148.744 644.5,155.5 Z"/></g>
<g><path style="opacity:1" fill="#f9fafa" d="M 694.5,184.5 C 691.167,184.5 687.833,184.5 684.5,184.5C 684.828,173.986 684.494,163.653 683.5,153.5C 678.157,147.197 672.324,146.864 666,152.5C 664.546,163.397 664.046,174.397 664.5,185.5C 661.167,185.5 657.833,185.5 654.5,185.5C 654.5,170.833 654.5,156.167 654.5,141.5C 657.5,141.5 660.5,141.5 663.5,141.5C 663.215,143.288 663.548,144.955 664.5,146.5C 667.812,141.929 672.312,139.929 678,140.5C 685.965,139.824 691.298,143.158 694,150.5C 694.5,161.828 694.667,173.162 694.5,184.5 Z"/></g>
<g><path style="opacity:1" fill="#2edada" d="M 365.5,142.5 C 357.734,140.944 350.067,141.277 342.5,143.5C 342.5,145.167 342.5,146.833 342.5,148.5C 349.373,146.608 356.373,146.108 363.5,147C 365.635,148.556 365.968,150.389 364.5,152.5C 357.171,147.53 349.505,147.196 341.5,151.5C 340.259,148.463 340.259,145.463 341.5,142.5C 345.67,141.048 350.003,140.381 354.5,140.5C 358.469,140.294 362.135,140.961 365.5,142.5 Z"/></g>
<g><path style="opacity:1" fill="#092928" d="M 199.5,138.5 C 201.363,142.755 203.03,147.088 204.5,151.5C 204.5,151.833 204.5,152.167 204.5,152.5C 204.5,153.5 204.5,154.5 204.5,155.5C 203.571,154.064 202.405,152.731 201,151.5C 200.535,147.152 200.035,142.819 199.5,138.5 Z"/></g>
<g><path style="opacity:1" fill="#17f0f4" d="M 777.5,81.5 C 791.856,84.0094 803.856,90.6761 813.5,101.5C 824.796,117.539 828.13,135.206 823.5,154.5C 821.853,158.424 820.186,162.424 818.5,166.5C 816.428,169.612 814.095,172.612 811.5,175.5C 813.5,177.833 815.5,180.167 817.5,182.5C 820.488,182.63 823.488,182.963 826.5,183.5C 826.833,184.167 827.167,184.833 827.5,185.5C 829.048,188.418 830.548,191.418 832,194.5C 840.631,201.962 849.131,209.628 857.5,217.5C 859.167,218.5 860.5,219.833 861.5,221.5C 861.938,223.126 862.272,224.793 862.5,226.5C 861.796,228.535 861.129,230.535 860.5,232.5C 857.869,233.478 855.202,234.478 852.5,235.5C 849.663,234.669 847.496,233.002 846,230.5C 845.667,230.833 845.333,231.167 845,231.5C 844.691,230.234 844.191,229.067 843.5,228C 840.751,226.877 838.251,225.377 836,223.5C 835.07,221.064 833.903,218.731 832.5,216.5C 828.179,213.047 824.179,209.214 820.5,205C 820.833,204.667 821.167,204.333 821.5,204C 818.879,202.405 816.213,200.905 813.5,199.5C 812.899,195.841 812.233,192.174 811.5,188.5C 810.15,187.05 808.484,186.383 806.5,186.5C 805.406,185.418 804.073,184.752 802.5,184.5C 799.807,186.177 797.141,187.843 794.5,189.5C 783.968,193.988 772.968,195.655 761.5,194.5C 755.097,193.134 748.763,191.467 742.5,189.5C 728.833,181.175 719.166,169.508 713.5,154.5C 711.379,144.894 711.045,135.227 712.5,125.5C 715.893,110.041 724.226,98.0415 737.5,89.5C 743.038,85.9871 749.038,83.6538 755.5,82.5C 762.799,81.6502 770.132,81.3169 777.5,81.5 Z"/></g>
<g><path style="opacity:1" fill="#013d3d" d="M 726.5,121.5 C 724.781,129.36 724.115,137.36 724.5,145.5C 723.347,139.681 723.181,133.681 724,127.5C 724.566,125.277 725.4,123.277 726.5,121.5 Z"/></g>
<g><path style="opacity:1" fill="#081d1d" d="M 806.5,114.5 C 811.644,120.991 813.978,128.491 813.5,137C 813.588,147.876 810.254,157.376 803.5,165.5C 804.102,161.636 805.268,157.969 807,154.5C 807.333,154.833 807.667,155.167 808,155.5C 809.895,149.997 811.061,144.331 811.5,138.5C 811.023,133.728 810.523,128.728 810,123.5C 808.047,120.745 806.88,117.745 806.5,114.5 Z"/></g>
<g><path style="opacity:1" fill="#040707" d="M 782.5,95.5 C 793.196,98.5046 801.196,104.838 806.5,114.5C 806.88,117.745 808.047,120.745 810,123.5C 810.523,128.728 811.023,133.728 811.5,138.5C 811.061,144.331 809.895,149.997 808,155.5C 807.667,155.167 807.333,154.833 807,154.5C 805.268,157.969 804.102,161.636 803.5,165.5C 798.895,171.926 792.895,176.759 785.5,180C 784.207,180.49 782.873,180.657 781.5,180.5C 772.5,181.833 763.5,181.833 754.5,180.5C 741.8,176.638 732.633,168.638 727,156.5C 725.438,152.986 724.605,149.319 724.5,145.5C 724.115,137.36 724.781,129.36 726.5,121.5C 730.715,110.619 738.048,102.619 748.5,97.5C 759.65,94.4014 770.984,93.7347 782.5,95.5 Z"/></g>
<g><path style="opacity:1" fill="#f6f6f6" d="M 762.5,107.5 C 770.392,106.41 777.559,108.077 784,112.5C 789.628,119.547 789.961,126.88 785,134.5C 781.855,137.734 778.522,140.734 775,143.5C 773.798,145.677 773.298,148.011 773.5,150.5C 769.5,150.5 765.5,150.5 761.5,150.5C 761.326,141.821 765.159,135.488 773,131.5C 778.028,121.87 775.195,117.704 764.5,119C 762.253,120.995 761.253,123.495 761.5,126.5C 757.5,126.5 753.5,126.5 749.5,126.5C 749.528,117.151 753.861,110.818 762.5,107.5 Z"/></g>
<g><path style="opacity:1" fill="#e9e9e9" d="M 755.5,100.5 C 758.084,101.048 759.084,102.715 758.5,105.5C 740.738,112.303 732.738,125.303 734.5,144.5C 732.833,144.5 731.167,144.5 729.5,144.5C 727.937,123.606 736.604,108.94 755.5,100.5 Z"/></g>
<g><path style="opacity:1" fill="#082c2c" d="M 782.5,95.5 C 770.984,93.7347 759.65,94.4014 748.5,97.5C 753.876,93.9865 759.876,92.3198 766.5,92.5C 772.148,92.4976 777.481,93.4976 782.5,95.5 Z"/></g>
<g><path style="opacity:1" fill="#080908" d="M 516.5,148.5 C 529.519,148.817 534.685,155.483 532,168.5C 529.121,176.191 523.621,179.024 515.5,177C 514,175.5 512.5,174 511,172.5C 510.333,166.167 510.333,159.833 511,153.5C 512.73,151.598 514.563,149.931 516.5,148.5 Z"/></g>
<g><path style="opacity:1" fill="#070808" d="M 569.5,148.5 C 582.519,148.817 587.685,155.483 585,168.5C 582.421,176.708 576.921,179.541 568.5,177C 567,175.5 565.5,174 564,172.5C 563.333,166.167 563.333,159.833 564,153.5C 565.73,151.598 567.563,149.931 569.5,148.5 Z"/></g>
<g><path style="opacity:1" fill="#171717" d="M 619.5,148.5 C 629.111,146.287 634.445,149.953 635.5,159.5C 628.167,159.5 620.833,159.5 613.5,159.5C 613.702,154.757 615.702,151.091 619.5,148.5 Z"/></g>
<g><path style="opacity:1" fill="#053131" d="M 712.5,125.5 C 711.045,135.227 711.379,144.894 713.5,154.5C 712.21,153.942 711.377,152.942 711,151.5C 710.333,143.5 710.333,135.5 711,127.5C 711.278,126.584 711.778,125.918 712.5,125.5 Z"/></g>
<g><path style="opacity:1" fill="#072222" d="M 228.5,138.5 C 227.078,145.425 225.078,152.092 222.5,158.5C 222.183,155.428 222.516,152.428 223.5,149.5C 225.533,145.906 227.199,142.239 228.5,138.5 Z"/></g>
<g><path style="opacity:1" fill="#198080" d="M 285.5,122.5 C 285.833,122.5 286.167,122.5 286.5,122.5C 286.5,122.833 286.5,123.167 286.5,123.5C 286.5,143.833 286.5,164.167 286.5,184.5C 289.5,184.5 292.5,184.5 295.5,184.5C 295.173,174.652 295.506,164.986 296.5,155.5C 296.5,165.5 296.5,175.5 296.5,185.5C 292.833,185.5 289.167,185.5 285.5,185.5C 285.5,164.5 285.5,143.5 285.5,122.5 Z"/></g>
<g><path style="opacity:1" fill="#1ef2ee" d="M 244.5,132.5 C 244.5,133.167 244.5,133.833 244.5,134.5C 247.752,144.43 250.752,154.43 253.5,164.5C 254.833,172.5 256.167,172.5 257.5,164.5C 258.877,158.312 260.544,152.312 262.5,146.5C 265.773,141.717 268.106,136.384 269.5,130.5C 271.544,129.02 272.878,129.52 273.5,132C 272.606,135.776 272.272,139.61 272.5,143.5C 271.883,143.611 271.383,143.944 271,144.5C 267.502,157.156 264.002,169.823 260.5,182.5C 257.5,183.833 254.5,183.833 251.5,182.5C 250.406,176.09 248.406,170.09 245.5,164.5C 244.833,163.5 244.167,162.5 243.5,161.5C 243.5,161.167 243.5,160.833 243.5,160.5C 242.458,156.303 241.125,152.303 239.5,148.5C 239.736,145.774 238.903,143.441 237,141.5C 235.539,144.679 234.705,148.012 234.5,151.5C 230.192,162.436 226.858,173.77 224.5,185.5C 220.5,185.5 216.5,185.5 212.5,185.5C 211.415,177.82 209.415,170.487 206.5,163.5C 206.5,163.167 206.5,162.833 206.5,162.5C 206.59,159.848 205.924,157.515 204.5,155.5C 204.5,154.5 204.5,153.5 204.5,152.5C 207.364,158.232 210.53,163.899 214,169.5C 214.167,168.333 214.333,167.167 214.5,166C 211.32,157.446 209.986,148.613 210.5,139.5C 213.154,149.098 215.988,158.765 219,168.5C 220.858,165.428 222.024,162.095 222.5,158.5C 225.078,152.092 227.078,145.425 228.5,138.5C 229.906,134.786 231.239,130.952 232.5,127C 235.817,126.502 239.15,126.335 242.5,126.5C 242.595,128.786 243.262,130.786 244.5,132.5 Z"/></g>
<g><path style="opacity:1" fill="#03383a" d="M 239.5,148.5 C 238.849,147.909 238.182,147.243 237.5,146.5C 236.999,148.655 235.999,150.322 234.5,151.5C 234.705,148.012 235.539,144.679 237,141.5C 238.903,143.441 239.736,145.774 239.5,148.5 Z"/></g>
<g><path style="opacity:1" fill="#081e1d" d="M 265.5,129.5 C 264.178,135.098 263.178,140.765 262.5,146.5C 260.544,152.312 258.877,158.312 257.5,164.5C 256.842,165.398 256.176,166.398 255.5,167.5C 254.824,166.398 254.158,165.398 253.5,164.5C 250.752,154.43 247.752,144.43 244.5,134.5C 246.038,137.849 247.871,141.182 250,144.5C 250.333,147.167 250.667,149.833 251,152.5C 252.599,154.056 254.099,155.723 255.5,157.5C 256.167,157.167 256.833,156.833 257.5,156.5C 260.108,148.673 262.108,140.673 263.5,132.5C 264.176,131.398 264.842,130.398 265.5,129.5 Z"/></g>
<g><path style="opacity:1" fill="#051717" d="M 341.5,142.5 C 340.259,145.463 340.259,148.463 341.5,151.5C 349.505,147.196 357.171,147.53 364.5,152.5C 364.5,153.5 364.5,154.5 364.5,155.5C 364.5,156.5 364.5,157.5 364.5,158.5C 358.974,158.179 353.64,158.512 348.5,159.5C 346.167,160.167 343.833,160.833 341.5,161.5C 343.434,159.354 345.601,157.354 348,155.5C 350.68,155.985 353.347,156.318 356,156.5C 357.399,155.773 358.899,155.273 360.5,155C 357.983,153.015 355.15,151.515 352,150.5C 347.591,151.531 343.091,152.198 338.5,152.5C 338.5,149.167 338.5,145.833 338.5,142.5C 339.5,142.5 340.5,142.5 341.5,142.5 Z"/></g>
<g><path style="opacity:1" fill="#033637" d="M 239.5,148.5 C 241.125,152.303 242.458,156.303 243.5,160.5C 242.21,159.942 241.377,158.942 241,157.5C 240.304,154.522 239.804,151.522 239.5,148.5 Z"/></g>
<g><path style="opacity:1" fill="#031a19" d="M 285.5,122.5 C 285.5,143.5 285.5,164.5 285.5,185.5C 289.167,185.5 292.833,185.5 296.5,185.5C 296.5,175.5 296.5,165.5 296.5,155.5C 297.167,152.833 298.833,151.167 301.5,150.5C 300.772,152.512 299.938,154.512 299,156.5C 298.667,166.167 298.333,175.833 298,185.5C 296.004,187.059 293.671,187.726 291,187.5C 288.906,187.464 286.906,187.131 285,186.5C 284.171,164.996 284.337,143.663 285.5,122.5 Z"/></g>
<g><path style="opacity:1" fill="#071e1d" d="M 210.5,137.5 C 211.885,138.574 213.051,139.907 214,141.5C 215.51,148.534 217.344,155.534 219.5,162.5C 220.521,161.099 221.521,159.765 222.5,158.5C 222.024,162.095 220.858,165.428 219,168.5C 215.988,158.765 213.154,149.098 210.5,139.5C 210.5,139.167 210.5,138.833 210.5,138.5C 210.5,138.167 210.5,137.833 210.5,137.5 Z"/></g>
<g><path style="opacity:1" fill="#f2f2f2" d="M 764.5,156.5 C 771.655,156.153 774.821,159.486 774,166.5C 770.087,172.617 765.754,172.951 761,167.5C 759.663,162.872 760.83,159.205 764.5,156.5 Z"/></g>
<g><path style="opacity:1" fill="#04504e" d="M 204.5,155.5 C 205.924,157.515 206.59,159.848 206.5,162.5C 205.076,160.485 204.41,158.152 204.5,155.5 Z"/></g>
<g><path style="opacity:1" fill="#178c8b" d="M 364.5,155.5 C 365.434,156.568 365.768,157.901 365.5,159.5C 359.833,159.5 354.167,159.5 348.5,159.5C 353.64,158.512 358.974,158.179 364.5,158.5C 364.5,157.5 364.5,156.5 364.5,155.5 Z"/></g>
<g><path style="opacity:1" fill="#8a8a8c" d="M 398.5,159.5 C 398.5,168.167 398.5,176.833 398.5,185.5C 394.629,185.815 390.962,185.482 387.5,184.5C 387.833,184.5 388.167,184.5 388.5,184.5C 391.5,184.5 394.5,184.5 397.5,184.5C 397.174,175.983 397.507,167.65 398.5,159.5 Z"/></g>
<g><path style="opacity:1" fill="#17f4f4" d="M 286.5,123.5 C 289.5,123.5 292.5,123.5 295.5,123.5C 295.169,131.196 295.503,138.862 296.5,146.5C 297.107,146.376 297.44,146.043 297.5,145.5C 298.527,143.806 299.861,142.473 301.5,141.5C 307.946,139.965 314.28,140.299 320.5,142.5C 322.985,144.652 324.651,147.319 325.5,150.5C 325.5,161.833 325.5,173.167 325.5,184.5C 322.5,184.5 319.5,184.5 316.5,184.5C 316.827,174.319 316.494,164.319 315.5,154.5C 312.936,148.936 308.603,147.102 302.5,149C 301.944,149.383 301.611,149.883 301.5,150.5C 298.833,151.167 297.167,152.833 296.5,155.5C 295.506,164.986 295.173,174.652 295.5,184.5C 292.5,184.5 289.5,184.5 286.5,184.5C 286.5,164.167 286.5,143.833 286.5,123.5 Z"/></g>
<g><path style="opacity:1" fill="#21efee" d="M 365.5,142.5 C 369.511,144.346 372.345,147.346 374,151.5C 374.5,162.495 374.667,173.495 374.5,184.5C 371.5,184.5 368.5,184.5 365.5,184.5C 365.762,183.022 365.429,181.689 364.5,180.5C 357.411,185.841 349.744,186.841 341.5,183.5C 340.5,182.833 339.5,182.167 338.5,181.5C 336.33,176.636 335.997,171.636 337.5,166.5C 338.833,164.833 340.167,163.167 341.5,161.5C 343.833,160.833 346.167,160.167 348.5,159.5C 354.167,159.5 359.833,159.5 365.5,159.5C 365.768,157.901 365.434,156.568 364.5,155.5C 364.5,154.5 364.5,153.5 364.5,152.5C 365.968,150.389 365.635,148.556 363.5,147C 356.373,146.108 349.373,146.608 342.5,148.5C 342.5,146.833 342.5,145.167 342.5,143.5C 350.067,141.277 357.734,140.944 365.5,142.5 Z"/></g>
<g><path style="opacity:1" fill="#9f9f9f" d="M 438.5,126.5 C 439.497,145.993 439.83,165.66 439.5,185.5C 435.629,185.815 431.962,185.482 428.5,184.5C 431.833,184.5 435.167,184.5 438.5,184.5C 438.5,165.167 438.5,145.833 438.5,126.5 Z"/></g>
<g><path style="opacity:1" fill="#676767" d="M 644.5,155.5 C 645.482,158.962 645.815,162.629 645.5,166.5C 634.833,166.5 624.167,166.5 613.5,166.5C 623.653,165.506 633.986,165.172 644.5,165.5C 644.5,162.167 644.5,158.833 644.5,155.5 Z"/></g>
<g><path style="opacity:1" fill="#025857" d="M 351.5,165.5 C 355.634,164.515 359.968,164.182 364.5,164.5C 364.81,167.713 364.477,170.713 363.5,173.5C 363.5,170.833 363.5,168.167 363.5,165.5C 359.5,165.5 355.5,165.5 351.5,165.5 Z"/></g>
<g><path style="opacity:1" fill="#0b0b0b" d="M 463.5,165.5 C 468.5,165.5 473.5,165.5 478.5,165.5C 478.921,175.901 473.921,180.067 463.5,178C 458.232,173.837 458.232,169.671 463.5,165.5 Z"/></g>
<g><path style="opacity:1" fill="#031010" d="M 351.5,165.5 C 355.5,165.5 359.5,165.5 363.5,165.5C 363.5,168.167 363.5,170.833 363.5,173.5C 362.781,175.888 361.115,177.388 358.5,178C 355.304,178.805 352.304,178.638 349.5,177.5C 347.215,174.435 346.882,171.102 348.5,167.5C 348.973,166.094 349.973,165.427 351.5,165.5 Z"/></g>
<g><path style="opacity:1" fill="#3f4140" d="M 683.5,153.5 C 684.494,163.653 684.828,173.986 684.5,184.5C 687.833,184.5 691.167,184.5 694.5,184.5C 691.038,185.482 687.371,185.815 683.5,185.5C 683.5,174.833 683.5,164.167 683.5,153.5 Z"/></g>
<g><path style="opacity:1" fill="#043e3d" d="M 243.5,161.5 C 244.167,162.5 244.833,163.5 245.5,164.5C 245.756,167.598 246.422,170.598 247.5,173.5C 246.21,172.942 245.377,171.942 245,170.5C 244.304,167.522 243.804,164.522 243.5,161.5 Z"/></g>
<g><path style="opacity:1" fill="#042222" d="M 315.5,154.5 C 315.5,164.833 315.5,175.167 315.5,185.5C 318.833,185.5 322.167,185.5 325.5,185.5C 324.306,186.777 322.64,187.444 320.5,187.5C 318.571,187.46 316.738,187.127 315,186.5C 314.667,175.5 314.333,164.5 314,153.5C 313.097,152.299 311.931,151.465 310.5,151C 307.518,150.502 304.518,150.335 301.5,150.5C 301.611,149.883 301.944,149.383 302.5,149C 308.603,147.102 312.936,148.936 315.5,154.5 Z"/></g>
<g><path style="opacity:1" fill="#013938" d="M 348.5,167.5 C 346.882,171.102 347.215,174.435 349.5,177.5C 346.862,176.758 345.529,174.925 345.5,172C 345.522,169.817 346.522,168.317 348.5,167.5 Z"/></g>
<g><path style="opacity:1" fill="#3adcdb" d="M 272.5,143.5 C 269.046,157.2 265.379,170.867 261.5,184.5C 257.981,185.808 254.315,185.808 250.5,184.5C 249.625,180.789 248.625,177.122 247.5,173.5C 246.422,170.598 245.756,167.598 245.5,164.5C 248.406,170.09 250.406,176.09 251.5,182.5C 254.5,183.833 257.5,183.833 260.5,182.5C 264.002,169.823 267.502,157.156 271,144.5C 271.383,143.944 271.883,143.611 272.5,143.5 Z"/></g>
<g><path style="opacity:1" fill="#14807e" d="M 253.5,164.5 C 254.158,165.398 254.824,166.398 255.5,167.5C 256.176,166.398 256.842,165.398 257.5,164.5C 256.167,172.5 254.833,172.5 253.5,164.5 Z"/></g>
<g><path style="opacity:1" fill="#052f2f" d="M 337.5,166.5 C 335.997,171.636 336.33,176.636 338.5,181.5C 337.25,181.423 336.417,180.756 336,179.5C 334.632,176.262 334.299,172.928 335,169.5C 335.377,168.058 336.21,167.058 337.5,166.5 Z"/></g>
<g><path style="opacity:1" fill="#072526" d="M 818.5,166.5 C 817.725,170.051 816.392,173.385 814.5,176.5C 817.16,180.288 820.827,182.122 825.5,182C 826.056,182.383 826.389,182.883 826.5,183.5C 823.488,182.963 820.488,182.63 817.5,182.5C 815.5,180.167 813.5,177.833 811.5,175.5C 814.095,172.612 816.428,169.612 818.5,166.5 Z"/></g>
<g><path style="opacity:1" fill="#033636" d="M 754.5,180.5 C 763.5,181.833 772.5,181.833 781.5,180.5C 772.49,184.446 763.49,184.446 754.5,180.5 Z"/></g>
<g><path style="opacity:1" fill="#092827" d="M 272.5,143.5 C 272.833,143.5 273.167,143.5 273.5,143.5C 272.551,153.043 270.718,162.377 268,171.5C 266.097,175.307 264.764,179.307 264,183.5C 263.329,184.252 262.496,184.586 261.5,184.5C 265.379,170.867 269.046,157.2 272.5,143.5 Z"/></g>
<g><path style="opacity:1" fill="#606161" d="M 500.5,141.5 C 500.5,161.5 500.5,181.5 500.5,201.5C 503.833,201.5 507.167,201.5 510.5,201.5C 507.038,202.482 503.371,202.815 499.5,202.5C 499.17,181.993 499.503,161.66 500.5,141.5 Z"/></g>
<g><path style="opacity:1" fill="#083333" d="M 365.5,184.5 C 360.017,185.606 354.517,186.606 349,187.5C 346.775,187.435 344.608,187.102 342.5,186.5C 341.614,185.675 341.281,184.675 341.5,183.5C 349.744,186.841 357.411,185.841 364.5,180.5C 365.429,181.689 365.762,183.022 365.5,184.5 Z"/></g>
<g><path style="opacity:1" fill="#228686" d="M 325.5,150.5 C 326.833,162.167 326.833,173.833 325.5,185.5C 322.167,185.5 318.833,185.5 315.5,185.5C 315.5,175.167 315.5,164.833 315.5,154.5C 316.494,164.319 316.827,174.319 316.5,184.5C 319.5,184.5 322.5,184.5 325.5,184.5C 325.5,173.167 325.5,161.833 325.5,150.5 Z"/></g>
<g><path style="opacity:1" fill="#09201f" d="M 234.5,151.5 C 233.694,160.986 231.194,169.986 227,178.5C 226.73,181.224 226.23,183.891 225.5,186.5C 221.205,187.661 216.871,187.828 212.5,187C 212,186.5 211.5,186 211,185.5C 210.235,181.262 208.902,177.262 207,173.5C 206.502,170.183 206.335,166.85 206.5,163.5C 209.415,170.487 211.415,177.82 212.5,185.5C 216.5,185.5 220.5,185.5 224.5,185.5C 226.858,173.77 230.192,162.436 234.5,151.5 Z"/></g>
<g><path style="opacity:1" fill="#0a2c2b" d="M 742.5,189.5 C 748.763,191.467 755.097,193.134 761.5,194.5C 761.5,194.833 761.5,195.167 761.5,195.5C 756.131,194.987 750.798,194.154 745.5,193C 743.574,192.578 742.574,191.411 742.5,189.5 Z"/></g>
<g><path style="opacity:1" fill="#074646" d="M 794.5,189.5 C 784.291,195.39 773.291,197.39 761.5,195.5C 761.5,195.167 761.5,194.833 761.5,194.5C 772.968,195.655 783.968,193.988 794.5,189.5 Z"/></g>
<g><path style="opacity:1" fill="#2fd5d7" d="M 827.5,185.5 C 837.839,195.839 847.839,206.506 857.5,217.5C 849.131,209.628 840.631,201.962 832,194.5C 830.548,191.418 829.048,188.418 827.5,185.5 Z"/></g>
<g><path style="opacity:1" fill="#838483" d="M 553.5,141.5 C 553.5,161.5 553.5,181.5 553.5,201.5C 556.833,201.5 560.167,201.5 563.5,201.5C 560.038,202.482 556.371,202.815 552.5,202.5C 552.17,181.993 552.503,161.66 553.5,141.5 Z"/></g>
<g><path style="opacity:1" fill="#27e4e7" d="M 806.5,186.5 C 808.484,186.383 810.15,187.05 811.5,188.5C 812.233,192.174 812.899,195.841 813.5,199.5C 816.213,200.905 818.879,202.405 821.5,204C 821.167,204.333 820.833,204.667 820.5,205C 824.179,209.214 828.179,213.047 832.5,216.5C 833.903,218.731 835.07,221.064 836,223.5C 838.251,225.377 840.751,226.877 843.5,228C 844.191,229.067 844.691,230.234 845,231.5C 845.333,231.167 845.667,230.833 846,230.5C 847.496,233.002 849.663,234.669 852.5,235.5C 855.202,234.478 857.869,233.478 860.5,232.5C 861.129,230.535 861.796,228.535 862.5,226.5C 862.272,224.793 861.938,223.126 861.5,221.5C 863.876,222.512 864.876,224.345 864.5,227C 862.357,235.914 856.69,239.581 847.5,238C 835,224.833 822.5,211.667 810,198.5C 809.374,196.287 809.541,194.12 810.5,192C 809.35,190.019 808.016,188.186 806.5,186.5 Z"/></g>
</svg>
