<?xml version="1.0" encoding="iso-8859-1"?>
<!-- Generator: Adobe Illustrator 19.0.0, SVG Export Plug-In . SVG Version: 6.00 Build 0)  -->
<svg xmlns="http://www.w3.org/2000/svg" xmlns:xlink="http://www.w3.org/1999/xlink" version="1.1" id="Capa_1" x="0px" y="0px" viewBox="0 0 511.999 511.999" style="enable-background:new 0 0 511.999 511.999;" xml:space="preserve">
<path style="fill:transparent;" d="M8,107.517v303.366c0,7.627,5.383,14.193,12.862,15.689l133.953,26.791  c8.623,1.725,17.553,1.047,25.817-1.958l154.946-56.343c5.509-2.003,11.463-2.455,17.211-1.305l132.073,26.415  c9.901,1.98,19.138-5.593,19.138-15.689V101.117c0-7.627-5.383-14.194-12.862-15.689L357.185,58.637  c-8.623-1.725-17.553-1.047-25.817,1.958l-154.946,56.343c-5.509,2.003-11.463,2.455-17.211,1.305L27.138,91.828  C17.237,89.847,8,97.42,8,107.517z"/>
<path style="fill:transparent;" d="M491.138,85.428L357.186,58.637c-4.359-0.872-8.795-1.121-13.186-0.774v335.379  c2.927-0.23,5.884-0.065,8.79,0.516l132.073,26.415c9.9,1.98,19.138-5.592,19.138-15.689V101.116  C504,93.49,498.617,86.923,491.138,85.428z"/>
<path style="fill:transparent;" d="M491.138,85.428L357.186,58.637c-8.623-1.725-17.553-1.047-25.817,1.958l-45.345,16.489  c-12.74,23.303-0.026,50.354,21.977,60.25c33.167,14.917,84.751,31.499,92,62.667c6.667,28.667-24,68,24,72  c45.601,3.8,40.823,58.532,80,45.097v-215.98C504,93.49,498.617,86.923,491.138,85.428z"/>
<path style="fill:transparent;" d="M491.138,85.428L357.186,58.637c-4.359-0.872-8.795-1.121-13.186-0.774v94.991  c26,11.721,51.106,26.104,56,47.147c6.667,28.667-24,68,24,72c45.601,3.8,40.823,58.532,80,45.097v-215.98  C504,93.49,498.617,86.923,491.138,85.428z"/>
<path style="fill:transparent;" d="M20.862,426.573l133.952,26.791c8.623,1.725,17.553,1.047,25.817-1.958l42.619-15.497L224,432  c-24-64-99.094-0.53-88-56c8-40-24-80-56-72s-36.12-24.478-40-40c-8-32-32-32-32-32v178.883C8,418.51,13.383,425.076,20.862,426.573  z"/>
<path style="fill:transparent;" d="M168,118.758c-2.927,0.23-5.884,0.065-8.79-0.516L27.138,91.827C17.237,89.847,8,97.42,8,107.517  v303.366c0,7.627,5.383,14.193,12.862,15.689l133.952,26.791c4.359,0.872,8.795,1.121,13.186,0.774V118.758z"/>
<g>
	<path style="fill:transparent;" d="M207,159c-19.068-6.356-56-8-72,16s0,48,32,48s40-16,48,0s40,16,40-8S231,167,207,159z"/>
	<path style="fill:transparent;" d="M222,276c-7.589,2.53-24,32-8,40s40,0,40-16C254,292,246,268,222,276z"/>
</g>
<g>
	<path style="fill:transparent;" d="M20.862,426.573l133.952,26.791c4.359,0.872,8.795,1.121,13.186,0.774v-53.383   c-20.93,0.899-37.651,3.5-32-24.755c8-40-24-80-56-72s-36.12-24.478-40-40c-8-32-32-32-32-32v178.883   C8,418.51,13.383,425.076,20.862,426.573z"/>
	<path style="fill:transparent;" d="M448,360c-11.894,5.802-19.4,16.281-44,8.667c-28-8.667-36,15.333-36.667,26v2l117.529,23.506   c9.9,1.98,19.138-5.592,19.138-15.689V392C504,376,475.333,346.666,448,360z"/>
	<path style="fill:transparent;" d="M168,222.969v-67.041c-12.954,2.048-25.364,7.618-33,19.072c-16,24,0,48,32,48   C167.35,223,167.656,222.973,168,222.969z"/>
</g>
<path style="fill:white;" d="M493.083,77.729L358.86,50.884c-9.989-1.998-20.329-1.214-29.903,2.268l-155.258,56.457  c-4.231,1.538-8.799,1.885-13.212,1.001L28.147,84.142c-6.938-1.386-14.06,0.39-19.534,4.877C3.139,93.507,0,100.14,0,107.217  v303.978c0,11.178,7.956,20.883,18.917,23.076l134.223,26.845c3.607,0.721,7.259,1.08,10.905,1.08  c6.451,0,12.881-1.124,18.998-3.348l155.258-56.457c4.23-1.538,8.799-1.884,13.212-1.001l132.339,26.468  c6.94,1.388,14.06-0.389,19.534-4.877c5.474-4.487,8.613-11.12,8.613-18.198V100.805C512,89.626,504.044,79.922,493.083,77.729z   M334.083,67.248c0.857-0.312,1.722-0.592,2.594-0.844v74.756c-3.089-1.322-6.145-2.61-9.128-3.867  c-5.813-2.449-11.304-4.762-16.368-7.04c-8.397-3.777-15.223-11.892-18.728-22.264c-3.165-9.368-3.166-19.312-0.055-25.584  L334.083,67.248z M167.823,184.371c-4.142,0-7.5,3.358-7.5,7.5v23.149c-10.456-1.332-18.553-5.904-22.249-12.809  c-3.605-6.735-2.567-14.979,2.922-23.214c12.888-19.332,44.912-19.286,63.533-13.078c20.751,6.917,42.969,28.257,42.969,48.998  c0,6.145-2.849,9.932-8.468,11.259c-6.842,1.613-14.81-1.407-17.405-6.597c-4.367-8.735-9.804-11.245-15.436-11.245  c-4.006,0-8.112,1.271-12.001,2.474c-5.011,1.551-10.946,3.385-18.866,4.199v-23.136  C175.323,187.729,171.965,184.371,167.823,184.371z M21.859,419.562c-3.975-0.795-6.859-4.313-6.859-8.367V241.543  c0.785,0.367,1.597,0.79,2.428,1.297c7.134,4.35,12.133,12.087,14.861,22.996c0.336,1.345,0.674,2.822,1.033,4.39  c2.717,11.863,6.823,29.79,20.505,38.186c4.815,2.954,10.319,4.435,16.448,4.435c3.527,0,7.261-0.491,11.188-1.473  c4.019-1.004,6.462-5.077,5.457-9.095c-1.005-4.019-5.08-6.464-9.095-5.457c-6.792,1.697-12.076,1.307-16.154-1.196  c-8.313-5.1-11.443-18.769-13.729-28.749c-0.383-1.671-0.744-3.246-1.103-4.679c-6.48-25.92-22.343-34.037-31.84-36.581v-27.864  c0.572-0.124,1.152-0.262,1.716-0.372c4.066-0.792,6.72-4.729,5.928-8.795c-0.717-3.68-4.009-6.193-7.645-6.053v-75.314  c0-2.566,1.138-4.971,3.123-6.598c1.543-1.265,3.446-1.936,5.398-1.936c0.56,0,1.124,0.055,1.685,0.167l132.339,26.467  c0.922,0.185,1.849,0.333,2.778,0.45v23.799c-13.926,3.452-24.831,10.645-31.807,21.109c-8.578,12.866-9.914,26.939-3.667,38.612  c6.267,11.711,19.272,19.236,35.474,20.821v163.772c-7.363,0.312-14.746,0.331-16.848-2.112c-0.774-0.899-2.36-4.069-0.362-14.057  c5.915-29.575-8.092-62.249-32.58-76.002c-3.612-2.028-8.184-0.745-10.212,2.866c-2.028,3.612-0.745,8.184,2.866,10.212  c16.218,9.109,30.567,33.227,25.216,59.982c-2.49,12.449-1.313,20.96,3.704,26.787c6.436,7.473,16.859,7.799,28.215,7.337v38.107  c-1.419-0.131-2.835-0.313-4.241-0.594L21.859,419.562z M177.917,444.751c-0.857,0.312-1.722,0.592-2.594,0.844v-37.254  c15.889-0.074,30.984,2.966,39.991,22.812L177.917,444.751z M229.458,426.01c-12.39-28.579-35.141-32.653-54.135-32.65V230.061  c10.263-0.898,17.885-3.247,23.299-4.923c2.748-0.85,6.498-2.001,7.607-1.823c0.167,0.13,0.881,0.776,1.98,2.973  c4.728,9.456,15.511,15.347,26.849,15.347c2.465,0,4.957-0.278,7.418-0.859c12.35-2.916,20.021-12.823,20.021-25.857  c0-13.056-6.021-26.937-16.956-39.086c-9.848-10.942-23.067-19.742-36.269-24.143l0,0c-10.199-3.399-22.476-4.918-33.95-4.308  v-22.605c1.179-0.309,2.35-0.652,3.502-1.071l96.58-35.119c-0.831,7.613,0.093,16.082,2.838,24.206  c4.906,14.521,14.419,25.58,26.786,31.142c5.228,2.352,10.799,4.699,16.697,7.183c3.227,1.36,6.54,2.756,9.885,4.193  c-1.165,0.61-2.188,1.526-2.923,2.73c-2.717,4.454-5.229,9.406-7.465,14.718c-1.607,3.817,0.185,8.215,4.002,9.823  c0.951,0.4,1.937,0.589,2.907,0.589c2.927,0,5.708-1.725,6.916-4.592c0.526-1.251,1.072-2.471,1.629-3.669v212.315  c-1.179,0.309-2.35,0.652-3.502,1.071L229.458,426.01z M351.677,386.231v-221.77c6.818,3.372,13.345,6.962,19.113,10.824  c1.282,0.858,2.732,1.27,4.167,1.27c2.418,0,4.792-1.167,6.238-3.328c2.305-3.442,1.383-8.1-2.058-10.405  c-8.304-5.562-17.795-10.497-27.459-14.999v-1.914c1.25,0.845,2.721,1.291,4.21,1.291c1.438,0,2.891-0.413,4.174-1.274  c3.683-2.473,7.734-4.548,12.044-6.167c3.877-1.457,5.839-5.781,4.383-9.659c-1.458-3.877-5.781-5.84-9.659-4.382  c-5.395,2.027-10.485,4.636-15.13,7.755c-0.008,0.005-0.015,0.011-0.022,0.017V64.999c1.419,0.131,2.835,0.313,4.241,0.594  l134.222,26.845c3.975,0.795,6.859,4.313,6.859,8.367v206.509c-10.952,4.632-15.09,2.633-16.547,1.919  c-4.185-2.052-7.508-7.395-11.356-13.582c-7.591-12.202-17.986-28.914-44.135-31.093c-9.331-0.777-15.48-3.008-18.279-6.631  c-4.115-5.328-2.315-15.67-0.41-26.62c1.811-10.405,3.862-22.199,1.323-33.12c-0.94-4.041-2.528-8.018-4.721-11.819  c-2.07-3.588-6.656-4.819-10.244-2.749c-3.588,2.069-4.819,6.656-2.749,10.244c1.455,2.522,2.499,5.12,3.104,7.722  c1.849,7.952,0.151,17.712-1.491,27.15c-2.378,13.668-4.837,27.803,3.318,38.361c5.556,7.193,15.01,11.252,28.904,12.41  c18.639,1.553,25.441,12.489,32.644,24.067c6.198,9.963,13.479,21.668,28.844,21.668c3.488,0,7.394-0.606,11.796-1.969v40.744  c-2.792-2.621-5.877-5.027-9.179-7.09c-14.083-8.799-29.255-10.027-42.722-3.458c-2.771,1.352-5.227,2.861-7.6,4.321  c-8.177,5.027-14.635,8.999-30.983,3.939c-15.133-4.684-25.196-0.913-30.974,3.075c-8.211,5.667-12.677,15.007-14.513,23.192  l-6.574-1.315C353.533,386.497,352.606,386.349,351.677,386.231z M497,404.783c0,2.566-1.138,4.971-3.123,6.598  c-1.985,1.627-4.568,2.272-7.083,1.768l-111.042-22.208c1.099-4.637,3.567-10.517,8.311-13.792  c4.425-3.054,10.488-3.421,18.018-1.091c22.845,7.072,34.173,0.106,43.275-5.491c2.163-1.33,4.206-2.586,6.319-3.617  c11.084-5.406,21.451-1.518,28.197,2.698C491.048,376.631,497,387.275,497,392.274V404.783z"/>
<path style="fill:white;" d="M261.496,300.089c0-6.857-3.879-20.531-14.288-28.034c-5.343-3.85-14.479-7.519-27.648-3.13  c-8.878,2.959-18.894,19.625-19.846,33.023c-0.685,9.625,3.168,17.041,10.848,20.88c5.307,2.654,11.361,3.963,17.438,3.963  c7.364,0,14.759-1.924,20.889-5.712C256.901,316.128,261.496,308.477,261.496,300.089z M241.003,308.32  c-6.717,4.15-16.698,4.61-23.733,1.093c-1.312-0.656-2.539-1.714-2.628-4.981c-0.229-8.34,6.968-19.512,9.896-21.353  c5.71-1.854,10.259-1.478,13.899,1.146c5.74,4.137,8.059,12.905,8.059,15.865C246.496,304.086,243.509,306.772,241.003,308.32z"/>
<path style="fill:white;" d="M256.137,359.477c-4.933,0.816-9.768,1.313-14.371,1.475c-4.14,0.146-7.377,3.619-7.232,7.759  c0.143,4.05,3.47,7.236,7.491,7.236c0.089,0,0.179-0.001,0.269-0.005c5.244-0.184,10.726-0.745,16.292-1.666  c4.086-0.676,6.851-4.537,6.175-8.624C264.084,361.565,260.222,358.805,256.137,359.477z"/>
<path style="fill:white;" d="M213.914,357.381c-4.405-1.403-8.716-3.249-12.813-5.488c-3.635-1.985-8.191-0.648-10.178,2.986  c-1.986,3.635-0.649,8.191,2.986,10.178c4.937,2.697,10.136,4.923,15.452,6.617c0.757,0.241,1.524,0.355,2.278,0.355  c3.178,0,6.128-2.036,7.145-5.226C220.041,362.857,217.86,358.639,213.914,357.381z"/>
<path style="fill:white;" d="M296.562,334.501c-3.657-1.946-8.198-0.558-10.144,3.098c-2.265,4.256-4.835,7.913-7.641,10.867  c-2.852,3.004-2.729,7.751,0.275,10.603c1.451,1.377,3.309,2.061,5.163,2.061c1.984,0,3.966-0.783,5.44-2.336  c3.738-3.937,7.104-8.698,10.005-14.149C301.606,340.989,300.219,336.447,296.562,334.501z"/>
<path style="fill:white;" d="M307.245,289.487c-4.08-0.672-7.947,2.091-8.622,6.178c-0.898,5.44-1.827,10.26-2.84,14.734  c-0.915,4.04,1.619,8.057,5.659,8.971c0.558,0.126,1.115,0.187,1.663,0.187c3.426,0,6.52-2.363,7.308-5.845  c1.079-4.765,2.063-9.869,3.01-15.603C314.098,294.022,311.332,290.162,307.245,289.487z"/>
<path style="fill:white;" d="M140.206,305.543c1.394,2.391,3.906,3.724,6.486,3.724c1.283,0,2.583-0.329,3.771-1.021  c3.578-2.086,4.788-6.678,2.702-10.257c-2.661-4.564-5.291-9.254-7.546-13.292c-2.021-3.617-6.59-4.91-10.206-2.889  c-3.616,2.02-4.91,6.589-2.889,10.206C134.812,296.108,137.481,300.869,140.206,305.543z"/>
<path style="fill:white;" d="M312.837,243.461c-4.11-0.492-7.844,2.447-8.335,6.559c-0.38,3.188-0.75,6.371-1.12,9.542l-0.68,5.824  c-0.483,4.114,2.46,7.84,6.574,8.324c0.297,0.035,0.592,0.052,0.884,0.052c3.751,0,6.991-2.809,7.439-6.625l0.682-5.84  c0.368-3.157,0.736-6.327,1.115-9.499C319.887,247.684,316.95,243.952,312.837,243.461z"/>
<path style="fill:white;" d="M113.587,260.309c1.173,1.671,2.399,3.499,3.644,5.434c1.433,2.228,3.848,3.443,6.314,3.443c1.39,0,2.796-0.386,4.051-1.194  c3.483-2.241,4.49-6.882,2.249-10.365c-1.354-2.104-2.693-4.101-3.981-5.937c-1.684-2.399-3.358-4.757-5.025-7.07  c-2.421-3.36-7.109-4.122-10.469-1.7c-3.361,2.421-4.122,7.109-1.7,10.469C110.301,255.654,111.939,257.961,113.587,260.309z"/>
<path style="fill:white;" d="M101.436,219.78c-3.789-4.357-7.397-8.181-11.029-11.688c-2.98-2.877-7.728-2.794-10.605,0.185s-2.794,7.728,0.185,10.605  c3.316,3.202,6.629,6.715,10.13,10.741c1.483,1.706,3.567,2.579,5.663,2.579c1.745,0,3.498-0.606,4.918-1.841  C103.824,227.643,104.154,222.906,101.436,219.78z"/>
<path style="fill:white;" d="M320.729,197.812c-4.045-0.895-8.047,1.66-8.941,5.705c-1.072,4.852-2.052,9.935-2.997,15.539  c-0.688,4.085,2.065,7.954,6.15,8.642c0.422,0.071,0.841,0.105,1.255,0.105c3.595,0,6.77-2.592,7.387-6.255  c0.901-5.353,1.834-10.192,2.851-14.794C327.329,202.709,324.774,198.706,320.729,197.812z"/>
<path style="fill:white;" d="M63.666,188.68c-5.212-2.553-10.617-4.493-16.062-5.767c-4.033-0.943-8.067,1.563-9.011,5.596  c-0.943,4.033,1.563,8.067,5.596,9.011c4.347,1.016,8.68,2.574,12.879,4.631c1.062,0.52,2.186,0.766,3.293,0.766  c2.773,0,5.439-1.544,6.741-4.203C68.925,194.995,67.386,190.502,63.666,188.68z"/>
<path style="fill:white;" d="M400.355,135.039c2.428-0.016,4.971,0.048,7.535,0.191c0.142,0.008,0.283,0.012,0.423,0.012c3.951,0,7.26-3.09,7.481-7.083  c0.23-4.136-2.936-7.675-7.072-7.905c-2.872-0.16-5.721-0.23-8.464-0.214c-4.142,0.027-7.478,3.406-7.452,7.548  C392.833,131.729,396.241,135.055,400.355,135.039z"/>
<path style="fill:white;" d="M435.068,149.078c1.464,1.464,3.384,2.197,5.303,2.197s3.839-0.732,5.303-2.197l10.729-10.729l10.729,10.729  c1.464,1.465,3.384,2.197,5.303,2.197s3.839-0.732,5.303-2.197c2.929-2.929,2.929-7.678,0-10.606l-10.729-10.729l10.729-10.729  c2.929-2.929,2.929-7.678,0-10.606c-2.929-2.929-7.678-2.929-10.606,0l-10.729,10.729l-10.729-10.729  c-2.928-2.929-7.677-2.929-10.606,0s-2.929,7.678,0,10.606l10.729,10.729l-10.729,10.729  C432.139,141.4,432.139,146.149,435.068,149.078z"/>
<g>
</g>
<g>
</g>
<g>
</g>
<g>
</g>
<g>
</g>
<g>
</g>
<g>
</g>
<g>
</g>
<g>
</g>
<g>
</g>
<g>
</g>
<g>
</g>
<g>
</g>
<g>
</g>
<g>
</g>
</svg>
