<svg xmlns="http://www.w3.org/2000/svg" xmlns:xlink="http://www.w3.org/1999/xlink" width="829" zoomAndPan="magnify" viewBox="0 0 621.75 163.5" height="218" preserveAspectRatio="xMidYMid meet" version="1.2"><defs><clipPath id="1fcdc83e7b"><path d="M 506.675781 23.789062 L 592.664062 23.789062 L 592.664062 109.773438 L 506.675781 109.773438 Z M 506.675781 23.789062 "/></clipPath><clipPath id="abbe2ecc05"><path d="M 518.671875 35.78125 L 542.597656 35.78125 L 542.597656 64 L 518.671875 64 Z M 518.671875 35.78125 "/></clipPath><clipPath id="bca292605d"><path d="M 518.671875 41.015625 L 518.671875 58.628906 C 518.671875 61.519531 521.015625 63.863281 523.90625 63.863281 L 537.726562 63.863281 C 540.617188 63.863281 542.960938 61.519531 542.960938 58.628906 L 542.960938 41.015625 C 542.960938 38.125 540.617188 35.78125 537.726562 35.78125 L 523.90625 35.78125 C 521.015625 35.78125 518.671875 38.125 518.671875 41.015625 Z M 518.671875 41.015625 "/></clipPath><clipPath id="6b87646b7a"><path d="M 578 103 L 618 103 L 618 145 L 578 145 Z M 578 103 "/></clipPath><clipPath id="cd2951df0f"><path d="M 586.566406 99.84375 L 620.84375 137.398438 L 609.246094 147.984375 L 574.96875 110.429688 Z M 586.566406 99.84375 "/></clipPath><clipPath id="9128f90666"><path d="M 580.890625 105.023438 C 577.757812 107.886719 577.535156 112.746094 580.398438 115.878906 L 604.109375 141.859375 C 606.96875 144.992188 611.828125 145.214844 614.964844 142.351562 C 618.097656 139.492188 618.320312 134.632812 615.457031 131.496094 L 591.746094 105.519531 C 588.886719 102.386719 584.027344 102.164062 580.890625 105.023438 Z M 580.890625 105.023438 "/></clipPath><clipPath id="2545955dba"><path d="M 586.566406 99.84375 L 620.84375 137.398438 L 609.246094 147.984375 L 574.96875 110.429688 Z M 586.566406 99.84375 "/></clipPath><clipPath id="5a87def01a"><path d="M 586.566406 99.84375 L 720.144531 246.191406 L 708.550781 256.777344 L 574.96875 110.429688 Z M 586.566406 99.84375 "/></clipPath><clipPath id="c2ef368dc9"><path d="M 571 95 L 592 95 L 592 117 L 571 117 Z M 571 95 "/></clipPath><clipPath id="6f00707c9b"><path d="M 576.761719 93.21875 L 593.898438 111.996094 L 586.167969 119.050781 L 569.03125 100.277344 Z M 576.761719 93.21875 "/></clipPath><clipPath id="88e36e75e3"><path d="M 573.164062 96.5 C 571.179688 98.316406 571.039062 101.394531 572.851562 103.382812 L 583.058594 114.5625 C 584.871094 116.550781 587.953125 116.691406 589.9375 114.878906 C 591.925781 113.066406 592.066406 109.984375 590.25 107.996094 L 580.042969 96.816406 C 578.230469 94.828125 575.152344 94.6875 573.164062 96.5 Z M 573.164062 96.5 "/></clipPath><clipPath id="09f587b498"><path d="M 576.761719 93.21875 L 593.394531 111.441406 L 586.214844 117.996094 L 569.582031 99.773438 Z M 576.761719 93.21875 "/></clipPath><clipPath id="2c06086e5d"><path d="M 576.761719 93.21875 L 661.445312 185.996094 L 654.265625 192.550781 L 569.582031 99.773438 Z M 576.761719 93.21875 "/></clipPath></defs><g id="b17a8242ea"><g clip-rule="nonzero" clip-path="url(#1fcdc83e7b)"><path style=" stroke:none;fill-rule:nonzero;fill:#004aad;fill-opacity:1;" d="M 549.671875 23.789062 C 525.925781 23.789062 506.675781 43.035156 506.675781 66.78125 C 506.675781 90.527344 525.925781 109.773438 549.671875 109.773438 C 573.414062 109.773438 592.664062 90.527344 592.664062 66.78125 C 592.664062 43.035156 573.414062 23.789062 549.671875 23.789062 Z M 549.671875 101.175781 C 530.675781 101.175781 515.277344 85.773438 515.277344 66.78125 C 515.277344 47.785156 530.675781 32.386719 549.671875 32.386719 C 568.664062 32.386719 584.066406 47.785156 584.066406 66.78125 C 584.066406 85.773438 568.664062 101.175781 549.671875 101.175781 Z M 549.671875 101.175781 "/></g><g style="fill:#a6a6a6;fill-opacity:1;"><g transform="translate(533.225399, 91.130648)"><path style="stroke:none" d="M 11.109375 -14.546875 C 11.128906 -17.460938 11.488281 -19.832031 12.1875 -21.65625 C 12.882812 -23.476562 14.125 -25.171875 15.90625 -26.734375 C 17.613281 -28.191406 18.875 -29.476562 19.6875 -30.59375 C 20.507812 -31.71875 20.921875 -32.96875 20.921875 -34.34375 C 20.921875 -37.8125 19.320312 -39.546875 16.125 -39.546875 C 14.707031 -39.546875 13.515625 -39.09375 12.546875 -38.1875 C 11.585938 -37.289062 11.097656 -35.945312 11.078125 -34.15625 L 1.34375 -34.15625 C 1.382812 -37.101562 2.046875 -39.570312 3.328125 -41.5625 C 4.617188 -43.5625 6.367188 -45.035156 8.578125 -45.984375 C 10.785156 -46.941406 13.300781 -47.421875 16.125 -47.421875 C 19.164062 -47.421875 21.769531 -46.929688 23.9375 -45.953125 C 26.101562 -44.984375 27.765625 -43.554688 28.921875 -41.671875 C 30.078125 -39.785156 30.65625 -37.492188 30.65625 -34.796875 C 30.65625 -33.097656 30.347656 -31.578125 29.734375 -30.234375 C 29.117188 -28.898438 28.332031 -27.707031 27.375 -26.65625 C 26.425781 -25.613281 25.109375 -24.300781 23.421875 -22.71875 L 22.8125 -22.171875 C 21.632812 -21.117188 20.816406 -20.019531 20.359375 -18.875 C 19.910156 -17.726562 19.664062 -16.285156 19.625 -14.546875 Z M 15.515625 -9.828125 C 16.585938 -9.828125 17.53125 -9.601562 18.34375 -9.15625 C 19.15625 -8.707031 19.785156 -8.097656 20.234375 -7.328125 C 20.691406 -6.554688 20.921875 -5.6875 20.921875 -4.71875 C 20.921875 -3.757812 20.691406 -2.894531 20.234375 -2.125 C 19.785156 -1.351562 19.15625 -0.738281 18.34375 -0.28125 C 17.53125 0.164062 16.585938 0.390625 15.515625 0.390625 C 14.441406 0.390625 13.5 0.164062 12.6875 -0.28125 C 11.875 -0.738281 11.242188 -1.351562 10.796875 -2.125 C 10.347656 -2.894531 10.125 -3.757812 10.125 -4.71875 C 10.125 -5.6875 10.347656 -6.554688 10.796875 -7.328125 C 11.242188 -8.097656 11.875 -8.707031 12.6875 -9.15625 C 13.5 -9.601562 14.441406 -9.828125 15.515625 -9.828125 Z M 15.515625 -9.828125 "/></g></g><g clip-rule="nonzero" clip-path="url(#abbe2ecc05)"><g clip-rule="nonzero" clip-path="url(#bca292605d)"><path style=" stroke:none;fill-rule:nonzero;fill:#ffffff;fill-opacity:1;" d="M 549.703125 35.78125 C 532.582031 35.78125 518.671875 49.691406 518.671875 66.8125 C 518.671875 83.933594 532.582031 97.84375 549.703125 97.84375 C 566.824219 97.84375 580.730469 83.933594 580.730469 66.8125 C 580.730469 49.691406 566.824219 35.78125 549.703125 35.78125 Z M 549.703125 38.367188 C 565.425781 38.367188 578.144531 51.089844 578.144531 66.8125 C 578.144531 82.535156 565.425781 95.257812 549.703125 95.257812 C 533.976562 95.257812 521.257812 82.535156 521.257812 66.8125 C 521.257812 51.089844 533.976562 38.367188 549.703125 38.367188 Z M 549.703125 38.367188 "/></g></g><g clip-rule="nonzero" clip-path="url(#6b87646b7a)"><g clip-rule="nonzero" clip-path="url(#cd2951df0f)"><g clip-rule="nonzero" clip-path="url(#9128f90666)"><g clip-rule="nonzero" clip-path="url(#2545955dba)"><g clip-rule="nonzero" clip-path="url(#5a87def01a)"><path style=" stroke:none;fill-rule:nonzero;fill:#004aad;fill-opacity:1;" d="M 586.527344 99.882812 L 720.105469 246.230469 L 708.847656 256.503906 L 575.269531 110.15625 Z M 586.527344 99.882812 "/></g></g></g></g></g><g style="fill:#737373;fill-opacity:1;"><g transform="translate(35.816157, 104.231248)"><path style="stroke:none" d="M 69.90625 -62.21875 L 79.328125 -62.21875 L 57.546875 0 L 51.328125 0 L 40.4375 -31.109375 L 29.546875 0 L 23.328125 0 L 1.5625 -62.21875 L 10.96875 -62.21875 L 26.4375 -17.734375 L 40.4375 -58.171875 L 54.4375 -17.734375 Z M 69.90625 -62.21875 "/></g></g><g style="fill:#737373;fill-opacity:1;"><g transform="translate(116.688908, 104.231248)"><path style="stroke:none" d="M 42 -31.109375 L 42 0 L 32.65625 0 L 32.65625 -31.109375 C 32.65625 -33.960938 31.984375 -35.945312 30.640625 -37.0625 C 29.296875 -38.175781 27.84375 -38.734375 26.28125 -38.734375 C 24.46875 -38.734375 22.742188 -38.300781 21.109375 -37.4375 C 19.472656 -36.582031 18.132812 -35.25 17.09375 -33.4375 C 16.0625 -31.625 15.546875 -29.289062 15.546875 -26.4375 L 15.546875 0 L 6.21875 0 L 6.21875 -62.21875 L 15.546875 -62.21875 L 15.546875 -39.96875 C 17.054688 -42.25 18.859375 -44.007812 20.953125 -45.25 C 23.054688 -46.5 25.351562 -47.125 27.84375 -47.125 C 32.507812 -47.125 36.035156 -45.722656 38.421875 -42.921875 C 40.804688 -40.128906 42 -36.191406 42 -31.109375 Z M 42 -31.109375 "/></g></g><g style="fill:#737373;fill-opacity:1;"><g transform="translate(164.901509, 104.231248)"><path style="stroke:none" d="M 31.265625 -20.21875 L 31.265625 -36.859375 C 30.117188 -37.484375 29 -37.953125 27.90625 -38.265625 C 26.820312 -38.578125 25.503906 -38.734375 23.953125 -38.734375 C 21.773438 -38.734375 19.816406 -37.835938 18.078125 -36.046875 C 16.335938 -34.253906 14.960938 -31.945312 13.953125 -29.125 C 12.941406 -26.300781 12.4375 -23.332031 12.4375 -20.21875 C 12.4375 -17.101562 12.828125 -14.648438 13.609375 -12.859375 C 14.390625 -11.078125 15.347656 -9.8125 16.484375 -9.0625 C 17.628906 -8.3125 18.71875 -7.9375 19.75 -7.9375 C 21.71875 -7.9375 23.570312 -8.414062 25.3125 -9.375 C 27.050781 -10.332031 28.476562 -11.726562 29.59375 -13.5625 C 30.707031 -15.40625 31.265625 -17.625 31.265625 -20.21875 Z M 44.71875 0 L 36.9375 0 C 34.34375 -0.988281 32.632812 -3.191406 31.8125 -6.609375 C 30.351562 -4.378906 28.46875 -2.640625 26.15625 -1.390625 C 23.851562 -0.148438 21.71875 0.46875 19.75 0.46875 C 16.84375 0.46875 14.117188 -0.359375 11.578125 -2.015625 C 9.046875 -3.679688 7 -6.054688 5.4375 -9.140625 C 3.882812 -12.222656 3.109375 -15.914062 3.109375 -20.21875 C 3.109375 -23.332031 3.492188 -26.46875 4.265625 -29.625 C 5.046875 -32.789062 6.28125 -35.691406 7.96875 -38.328125 C 9.65625 -40.972656 11.820312 -43.097656 14.46875 -44.703125 C 17.113281 -46.316406 20.273438 -47.125 23.953125 -47.125 C 26.546875 -47.125 29.253906 -46.601562 32.078125 -45.5625 C 34.898438 -44.53125 37.738281 -42.875 40.59375 -40.59375 L 40.59375 -10.890625 C 40.59375 -8.191406 41.03125 -5.960938 41.90625 -4.203125 C 42.789062 -2.441406 43.726562 -1.039062 44.71875 0 Z M 44.71875 0 "/></g></g><g style="fill:#d9d9d9;fill-opacity:1;"><g transform="translate(211.715731, 104.231248)"><path style="stroke:none" d="M 52.875 -62.21875 L 52.875 0 L 43.546875 0 L 43.546875 -26.90625 L 15.546875 -26.90625 L 15.546875 0 L 6.21875 0 L 6.21875 -62.21875 L 15.546875 -62.21875 L 15.546875 -35.3125 L 43.546875 -35.3125 L 43.546875 -62.21875 Z M 52.875 -62.21875 "/></g></g><g style="fill:#d9d9d9;fill-opacity:1;"><g transform="translate(270.815049, 104.231248)"><path style="stroke:none" d="M 31.265625 -20.21875 L 31.265625 -36.859375 C 30.117188 -37.484375 29 -37.953125 27.90625 -38.265625 C 26.820312 -38.578125 25.503906 -38.734375 23.953125 -38.734375 C 21.773438 -38.734375 19.816406 -37.835938 18.078125 -36.046875 C 16.335938 -34.253906 14.960938 -31.945312 13.953125 -29.125 C 12.941406 -26.300781 12.4375 -23.332031 12.4375 -20.21875 C 12.4375 -17.101562 12.828125 -14.648438 13.609375 -12.859375 C 14.390625 -11.078125 15.347656 -9.8125 16.484375 -9.0625 C 17.628906 -8.3125 18.71875 -7.9375 19.75 -7.9375 C 21.71875 -7.9375 23.570312 -8.414062 25.3125 -9.375 C 27.050781 -10.332031 28.476562 -11.726562 29.59375 -13.5625 C 30.707031 -15.40625 31.265625 -17.625 31.265625 -20.21875 Z M 44.71875 0 L 36.9375 0 C 34.34375 -0.988281 32.632812 -3.191406 31.8125 -6.609375 C 30.351562 -4.378906 28.46875 -2.640625 26.15625 -1.390625 C 23.851562 -0.148438 21.71875 0.46875 19.75 0.46875 C 16.84375 0.46875 14.117188 -0.359375 11.578125 -2.015625 C 9.046875 -3.679688 7 -6.054688 5.4375 -9.140625 C 3.882812 -12.222656 3.109375 -15.914062 3.109375 -20.21875 C 3.109375 -23.332031 3.492188 -26.46875 4.265625 -29.625 C 5.046875 -32.789062 6.28125 -35.691406 7.96875 -38.328125 C 9.65625 -40.972656 11.820312 -43.097656 14.46875 -44.703125 C 17.113281 -46.316406 20.273438 -47.125 23.953125 -47.125 C 26.546875 -47.125 29.253906 -46.601562 32.078125 -45.5625 C 34.898438 -44.53125 37.738281 -42.875 40.59375 -40.59375 L 40.59375 -10.890625 C 40.59375 -8.191406 41.03125 -5.960938 41.90625 -4.203125 C 42.789062 -2.441406 43.726562 -1.039062 44.71875 0 Z M 44.71875 0 "/></g></g><g style="fill:#d9d9d9;fill-opacity:1;"><g transform="translate(317.627935, 104.231248)"><path style="stroke:none" d="M 34.375 -26.4375 C 34.375 -30.320312 33.609375 -33.34375 32.078125 -35.5 C 30.546875 -37.65625 28.613281 -38.734375 26.28125 -38.734375 C 23.175781 -38.734375 20.609375 -37.304688 18.578125 -34.453125 C 16.554688 -31.597656 15.546875 -27.628906 15.546875 -22.546875 L 15.546875 -17.109375 C 15.546875 -14.671875 15.882812 -12.773438 16.5625 -11.421875 C 17.238281 -10.078125 18.132812 -9.160156 19.25 -8.671875 C 20.363281 -8.179688 21.566406 -7.9375 22.859375 -7.9375 C 25.347656 -7.9375 27.445312 -8.773438 29.15625 -10.453125 C 30.875 -12.140625 32.171875 -14.382812 33.046875 -17.1875 C 33.929688 -19.988281 34.375 -23.070312 34.375 -26.4375 Z M 43.703125 -26.4375 C 43.703125 -23.332031 43.300781 -20.195312 42.5 -17.03125 C 41.695312 -13.863281 40.460938 -10.957031 38.796875 -8.3125 C 37.140625 -5.675781 35.050781 -3.550781 32.53125 -1.9375 C 30.019531 -0.332031 27.054688 0.46875 23.640625 0.46875 C 21.828125 0.46875 20.320312 0.171875 19.125 -0.421875 C 17.9375 -1.023438 17.039062 -1.625 16.4375 -2.21875 C 15.84375 -2.8125 15.546875 -3.109375 15.546875 -3.109375 L 15.546875 15.546875 L 6.21875 15.546875 L 6.21875 -22.546875 C 6.21875 -27.210938 6.851562 -31.125 8.125 -34.28125 C 9.394531 -37.445312 11.066406 -39.960938 13.140625 -41.828125 C 15.210938 -43.703125 17.46875 -45.050781 19.90625 -45.875 C 22.34375 -46.707031 24.726562 -47.125 27.0625 -47.125 C 29.96875 -47.125 32.6875 -46.296875 35.21875 -44.640625 C 37.757812 -42.984375 39.804688 -40.609375 41.359375 -37.515625 C 42.921875 -34.429688 43.703125 -30.738281 43.703125 -26.4375 Z M 43.703125 -26.4375 "/></g></g><g style="fill:#d9d9d9;fill-opacity:1;"><g transform="translate(365.996067, 104.231248)"><path style="stroke:none" d="M 34.375 -26.4375 C 34.375 -30.320312 33.609375 -33.34375 32.078125 -35.5 C 30.546875 -37.65625 28.613281 -38.734375 26.28125 -38.734375 C 23.175781 -38.734375 20.609375 -37.304688 18.578125 -34.453125 C 16.554688 -31.597656 15.546875 -27.628906 15.546875 -22.546875 L 15.546875 -17.109375 C 15.546875 -14.671875 15.882812 -12.773438 16.5625 -11.421875 C 17.238281 -10.078125 18.132812 -9.160156 19.25 -8.671875 C 20.363281 -8.179688 21.566406 -7.9375 22.859375 -7.9375 C 25.347656 -7.9375 27.445312 -8.773438 29.15625 -10.453125 C 30.875 -12.140625 32.171875 -14.382812 33.046875 -17.1875 C 33.929688 -19.988281 34.375 -23.070312 34.375 -26.4375 Z M 43.703125 -26.4375 C 43.703125 -23.332031 43.300781 -20.195312 42.5 -17.03125 C 41.695312 -13.863281 40.460938 -10.957031 38.796875 -8.3125 C 37.140625 -5.675781 35.050781 -3.550781 32.53125 -1.9375 C 30.019531 -0.332031 27.054688 0.46875 23.640625 0.46875 C 21.828125 0.46875 20.320312 0.171875 19.125 -0.421875 C 17.9375 -1.023438 17.039062 -1.625 16.4375 -2.21875 C 15.84375 -2.8125 15.546875 -3.109375 15.546875 -3.109375 L 15.546875 15.546875 L 6.21875 15.546875 L 6.21875 -22.546875 C 6.21875 -27.210938 6.851562 -31.125 8.125 -34.28125 C 9.394531 -37.445312 11.066406 -39.960938 13.140625 -41.828125 C 15.210938 -43.703125 17.46875 -45.050781 19.90625 -45.875 C 22.34375 -46.707031 24.726562 -47.125 27.0625 -47.125 C 29.96875 -47.125 32.6875 -46.296875 35.21875 -44.640625 C 37.757812 -42.984375 39.804688 -40.609375 41.359375 -37.515625 C 42.921875 -34.429688 43.703125 -30.738281 43.703125 -26.4375 Z M 43.703125 -26.4375 "/></g></g><g style="fill:#d9d9d9;fill-opacity:1;"><g transform="translate(414.364199, 104.231248)"><path style="stroke:none" d="M 31.265625 -32.65625 C 31.265625 -34.425781 30.613281 -35.878906 29.3125 -37.015625 C 28.019531 -38.160156 26.390625 -38.734375 24.421875 -38.734375 C 22.804688 -38.734375 21.144531 -38.222656 19.4375 -37.203125 C 17.726562 -36.191406 16.238281 -34.753906 14.96875 -32.890625 C 13.695312 -31.023438 12.90625 -28.769531 12.59375 -26.125 C 12.59375 -26.125 13.515625 -26.210938 15.359375 -26.390625 C 17.203125 -26.578125 19.546875 -26.929688 22.390625 -27.453125 C 25.921875 -28.078125 28.28125 -28.816406 29.46875 -29.671875 C 30.664062 -30.523438 31.265625 -31.519531 31.265625 -32.65625 Z M 36.859375 -14.546875 L 40.984375 -8.328125 C 38.597656 -5.316406 35.941406 -3.097656 33.015625 -1.671875 C 30.085938 -0.242188 27.066406 0.46875 23.953125 0.46875 C 21.253906 0.46875 18.660156 -0.0625 16.171875 -1.125 C 13.679688 -2.1875 11.453125 -3.703125 9.484375 -5.671875 C 7.515625 -7.640625 5.957031 -10.007812 4.8125 -12.78125 C 3.675781 -15.5625 3.109375 -18.660156 3.109375 -22.078125 C 3.109375 -25.085938 3.597656 -28.070312 4.578125 -31.03125 C 5.566406 -33.988281 6.984375 -36.679688 8.828125 -39.109375 C 10.671875 -41.546875 12.898438 -43.488281 15.515625 -44.9375 C 18.128906 -46.394531 21.097656 -47.125 24.421875 -47.125 C 27.015625 -47.125 29.488281 -46.515625 31.84375 -45.296875 C 34.207031 -44.078125 36.125 -42.378906 37.59375 -40.203125 C 39.070312 -38.023438 39.8125 -35.507812 39.8125 -32.65625 C 39.8125 -31.3125 39.617188 -30.039062 39.234375 -28.84375 C 38.847656 -27.65625 38.03125 -26.539062 36.78125 -25.5 C 35.800781 -24.726562 34.441406 -23.914062 32.703125 -23.0625 C 30.960938 -22.207031 28.507812 -21.453125 25.34375 -20.796875 C 22.1875 -20.148438 17.910156 -19.695312 12.515625 -19.4375 C 12.984375 -15.65625 14.332031 -12.789062 16.5625 -10.84375 C 18.789062 -8.90625 21.253906 -7.9375 23.953125 -7.9375 C 26.285156 -7.9375 28.5 -8.441406 30.59375 -9.453125 C 32.695312 -10.460938 34.785156 -12.160156 36.859375 -14.546875 Z M 36.859375 -14.546875 "/></g></g><g style="fill:#d9d9d9;fill-opacity:1;"><g transform="translate(458.455398, 104.231248)"><path style="stroke:none" d="M 42 -31.109375 L 42 0 L 32.65625 0 L 32.65625 -31.109375 C 32.65625 -33.960938 31.984375 -35.945312 30.640625 -37.0625 C 29.296875 -38.175781 27.84375 -38.734375 26.28125 -38.734375 C 24.46875 -38.734375 22.742188 -38.300781 21.109375 -37.4375 C 19.472656 -36.582031 18.132812 -35.25 17.09375 -33.4375 C 16.0625 -31.625 15.546875 -29.289062 15.546875 -26.4375 L 15.546875 0 L 6.21875 0 L 6.21875 -46.65625 L 15.546875 -46.65625 L 15.546875 -39.96875 C 17.054688 -42.25 18.859375 -44.007812 20.953125 -45.25 C 23.054688 -46.5 25.351562 -47.125 27.84375 -47.125 C 32.507812 -47.125 36.035156 -45.722656 38.421875 -42.921875 C 40.804688 -40.128906 42 -36.191406 42 -31.109375 Z M 42 -31.109375 "/></g></g><g clip-rule="nonzero" clip-path="url(#c2ef368dc9)"><g clip-rule="nonzero" clip-path="url(#6f00707c9b)"><g clip-rule="nonzero" clip-path="url(#88e36e75e3)"><g clip-rule="nonzero" clip-path="url(#09f587b498)"><g clip-rule="nonzero" clip-path="url(#2c06086e5d)"><path style=" stroke:none;fill-rule:nonzero;fill:#004aad;fill-opacity:1;" d="M 576.738281 93.242188 L 661.351562 185.941406 L 654.21875 192.453125 L 569.605469 99.75 Z M 576.738281 93.242188 "/></g></g></g></g></g></g></svg>